SplineFontDB: 3.0
FontName: Antonio-Regular
FullName: Antonio Regular
FamilyName: Antonio
Weight: Regular
Copyright: Copyright (c) 2011-12, vernon adams (vern@newtypography.co.uk), with Reserved Font Names 'Antonio'
Version: 1
ItalicAngle: 0
UnderlinePosition: 0
UnderlineWidth: 0
Ascent: 1760
Descent: 288
UFOAscent: 1779
UFODescent: -647
LayerCount: 2
Layer: 0 0 "Back"  1
Layer: 1 0 "Fore"  0
FSType: 0
OS2Version: 0
OS2_WeightWidthSlopeOnly: 0
OS2_UseTypoMetrics: 1
CreationTime: 1374907641
ModificationTime: 1375456786
PfmFamily: 17
TTFWeight: 400
TTFWidth: 1
LineGap: 0
VLineGap: 0
OS2TypoAscent: 2382
OS2TypoAOffset: 0
OS2TypoDescent: -670
OS2TypoDOffset: 0
OS2TypoLinegap: 0
OS2WinAscent: 2382
OS2WinAOffset: 0
OS2WinDescent: 670
OS2WinDOffset: 0
HheadAscent: 2382
HheadAOffset: 0
HheadDescent: -670
HheadDOffset: 0
OS2Vendor: 'newt'
Lookup: 258 0 0 "'kern' Horizontal Kerning in Latin lookup 0"  {"kernHorizontalKerninglookup0 kerning class 1"  } ['kern' ('DFLT' <'dflt' > 'latn' <'dflt' > ) ]
Lookup: 260 0 0 "markMarkPositioninglookup2"  {"markMarkPositioninglookup2 subtable"  } ['mark' ('latn' <'dflt' > 'grek' <'dflt' > 'cyrl' <'dflt' > 'DFLT' <'dflt' > ) ]
MarkAttachClasses: 1
DEI: 91125
KernClass2: 24 29 "kernHorizontalKerninglookup0 kerning class 1" 
 89 A Aacute Abreve Acircumflex Adieresis Agrave Amacron Aogonek Aring Atilde uni0200 uni0202
 9 B uni1E02
 47 C Cacute Ccaron Ccedilla Ccircumflex Cdotaccent
 16 D Dcaron uni1E0A
 9 F uni1E1E
 52 G Gbreve Gcircumflex Gcommaaccent Gdotaccent uni01F4
 13 J Jcircumflex
 14 K Kcommaaccent
 28 L Lacute Lcaron Lcommaaccent
 89 O Oacute Obreve Ocircumflex Odieresis Ograve Ohungarumlaut Omacron Otilde uni020C uni020E
 9 P uni1E56
 44 R Racute Rcaron Rcommaaccent uni0210 uni0212
 1 V
 37 W Wacute Wcircumflex Wdieresis Wgrave
 37 Y Yacute Ycircumflex Ydieresis Ygrave
 9 b uni1E03
 47 c cacute ccaron ccedilla ccircumflex cdotaccent
 9 f uni1E1F
 14 k kcommaaccent

StartChar: .notdef
Encoding: 65536 -1 0
Width: 1024
VWidth: 0
Flags: W
HStem: 0 102<204 820> 196 16.3361<292.337 409.505 640.444 737.7> 1549.56 15.5582<292.337 392.213 625.439 737.7> 1658 102<204 820>
VStem: 102 102<102 1658> 292.337 117.169<196 1135.71> 625.439 112.261<758.834 1565.12> 644.456 93.2441<196 230.106 633.184 816.294> 820 102<102 1658>
CounterMasks: 2 f0 0e80
LayerCount: 2
UndoRedoHistory
Layer: 1
Undoes
EndUndoes
Redoes
EndRedoes
EndUndoRedoHistory
Fore
SplineSet
102 1760 m 1xfc80
 922 1760 l 1
 922 0 l 1
 102 0 l 1
 102 1760 l 1xfc80
820 102 m 1
 820 1658 l 1
 204 1658 l 1
 204 102 l 1
 820 102 l 1
EndSplineSet
Refer: 66 78 N 0.613448 0 0 0.777908 204 196 2
EndChar

StartChar: A
Encoding: 65 65 1
Width: 907
VWidth: 0
GlyphClass: 2
Flags: W
HStem: 0 21G<50 249.738 659.024 857> 336 168<316 586> 1740 20G<313.966 569.307>
AnchorPoint: "ogonek" 761 0 basechar 0
LayerCount: 2
UndoRedoHistory
Layer: 1
Undoes
EndUndoes
Redoes
EndRedoes
EndUndoRedoHistory
Fore
SplineSet
317 1760 m 1
 566 1760 l 1
 857 0 l 1
 662 0 l 1
 612 336 l 1
 293 336 l 1
 247 0 l 1
 50 0 l 1
 317 1760 l 1
316 504 m 1
 586 504 l 1
 447 1434 l 1
 444 1434 l 1
 316 504 l 1
EndSplineSet
EndChar

StartChar: AE
Encoding: 198 198 2
Width: 1206
VWidth: 0
GlyphClass: 2
Flags: W
HStem: 0 172<803 1109> 336 161<359 596> 812 174<803 1088> 1588 172<570 596 803 1105>
VStem: 596 207<172 336 497 812 986 1588>
LayerCount: 2
UndoRedoHistory
Layer: 1
Undoes
EndUndoes
Redoes
EndRedoes
EndUndoRedoHistory
Fore
SplineSet
419 1760 m 1
 1105 1760 l 1
 1105 1588 l 1
 803 1588 l 1
 803 986 l 1
 1088 986 l 1
 1088 812 l 1
 803 812 l 1
 803 172 l 1
 1109 172 l 1
 1109 0 l 1
 596 0 l 1
 596 336 l 1
 329 336 l 1
 264 0 l 1
 66 0 l 1
 419 1760 l 1
596 497 m 1
 596 1590 l 1
 570 1589 l 1
 359 497 l 1
 596 497 l 1
EndSplineSet
EndChar

StartChar: B
Encoding: 66 66 12
Width: 917
VWidth: 0
GlyphClass: 2
Flags: W
HStem: 0 167<351 577.107> 866 159<351 574.481> 1591 169<351 564.204>
VStem: 144 207<167 866 1025 1591> 601 205<1048.54 1554.6> 627 208<215.735 824.37>
LayerCount: 2
UndoRedoHistory
Layer: 1
Undoes
EndUndoes
Redoes
EndRedoes
EndUndoRedoHistory
Fore
SplineSet
144 1760 m 1xf4
 462 1760 l 2
 731 1760 804 1647 806 1364 c 1
 806 1326 l 2xf8
 806 1130 777 1008 673 953 c 1
 798 902 835 730 835 530 c 2
 835 493 l 1
 831 149 747 0 488 0 c 2
 144 0 l 1
 144 1760 l 1xf4
627 560 m 2xf4
 627 777 603 866 489 866 c 2
 351 866 l 1
 351 167 l 1
 478 167 l 2
 595 167 627 241 627 499 c 2
 627 560 l 2xf4
601 1361 m 1xf8
 600 1560 559 1591 453 1591 c 2
 351 1591 l 1
 351 1025 l 1
 468 1025 l 2
 580 1025 601 1057 601 1312 c 2
 601 1361 l 1xf8
EndSplineSet
EndChar

StartChar: C
Encoding: 67 67 13
Width: 918
VWidth: 0
GlyphClass: 2
Flags: W
HStem: -21 176<380.329 560.025> 1602 177<386.608 561.428>
VStem: 124 207<206.368 1544.43> 606 203<202.745 710 1079 1554.64>
AnchorPoint: "cedilla" 480 0 basechar 0
LayerCount: 2
UndoRedoHistory
Layer: 1
Undoes
EndUndoes
Redoes
EndRedoes
EndUndoRedoHistory
Fore
SplineSet
124 1252 m 2
 124 1562 190 1779 477 1779 c 0
 752 1779 809 1572 809 1274 c 2
 809 1079 l 1
 606 1079 l 1
 606 1275 l 2
 606 1494 586 1602 477 1602 c 0
 361 1602 331 1488 331 1276 c 2
 331 514 l 2
 331 257 357 155 471 155 c 0
 582 155 606 259 606 515 c 2
 606 710 l 1
 811 710 l 1
 811 517 l 2
 811 165 733 -21 470 -21 c 0
 213 -21 124 172 124 519 c 2
 124 1252 l 2
EndSplineSet
EndChar

StartChar: D
Encoding: 68 68 19
Width: 954
VWidth: 0
GlyphClass: 2
Flags: W
HStem: 0 167<350 569.716> 1596 164<350 558.614>
VStem: 144 206<167 1596> 623 207<222.553 1524.47>
LayerCount: 2
UndoRedoHistory
Layer: 1
Undoes
EndUndoes
Redoes
EndRedoes
EndUndoRedoHistory
Fore
SplineSet
144 1760 m 1
 475 1760 l 2
 751 1760 829 1579 829 1282 c 2
 830 509 l 2
 830 152 732 0 468 0 c 2
 144 0 l 1
 144 1760 l 1
623 1287 m 2
 623 1508 574 1596 456 1596 c 2
 350 1596 l 1
 350 167 l 1
 456 167 l 2
 568 167 623 223 623 477 c 2
 623 1287 l 2
EndSplineSet
EndChar

StartChar: Delta
Encoding: 916 916 22
Width: 939
VWidth: 0
GlyphClass: 2
Flags: W
HStem: 0 168<286 653> 1740 20G<329.966 585.307>
LayerCount: 2
UndoRedoHistory
Layer: 1
Undoes
EndUndoes
Redoes
EndRedoes
EndUndoRedoHistory
Fore
SplineSet
333 1760 m 1
 582 1760 l 1
 873 0 l 1
 66 0 l 1
 333 1760 l 1
653 168 m 1
 463 1434 l 1
 460 1434 l 1
 286 168 l 1
 653 168 l 1
EndSplineSet
EndChar

StartChar: E
Encoding: 69 69 23
Width: 755
VWidth: 0
GlyphClass: 2
Flags: W
HStem: 0 172<351 674> 814 172<351 653> 1588 172<351 670>
VStem: 144 530<0 172 1588 1760> 144 207<172 814 986 1588>
AnchorPoint: "ogonek" 471 0 basechar 0
LayerCount: 2
UndoRedoHistory
Layer: 1
Undoes
EndUndoes
Redoes
EndRedoes
EndUndoRedoHistory
Fore
SplineSet
144 1760 m 1xf0
 670 1760 l 1
 670 1588 l 1
 351 1588 l 1
 351 986 l 1
 653 986 l 1
 653 814 l 1
 351 814 l 1
 351 172 l 1xe8
 674 172 l 1
 674 0 l 1
 144 0 l 1
 144 1760 l 1xf0
EndSplineSet
EndChar

StartChar: Euro
Encoding: 8364 8364 34
Width: 1076
VWidth: 0
GlyphClass: 2
Flags: W
HStem: -21 176<380.329 560.025> 721 148<23 164 254 518> 966 140<23 164 254 518> 1602 177<386.608 561.428>
VStem: 124 207<206.368 1544.43> 164 90<869 966> 606 203<202.745 710 1079 1554.64>
CounterMasks: 1 f0
LayerCount: 2
UndoRedoHistory
Layer: 1
Undoes
EndUndoes
Redoes
EndRedoes
EndUndoRedoHistory
Fore
SplineSet
23 1106 m 1xf6
 518 1106 l 1
 518 966 l 1
 254 966 l 1
 254 869 l 1
 518 869 l 1
 518 721 l 1
 23 721 l 1
 23 869 l 1
 164 869 l 1
 164 966 l 1
 23 966 l 1
 23 1106 l 1xf6
EndSplineSet
Refer: 13 67 N 1 0 0 1 0 0 2
EndChar

StartChar: F
Encoding: 70 70 35
Width: 747
VWidth: 0
GlyphClass: 2
Flags: W
HStem: 0 21G<144 350> 856 175<350 654> 1587 173<350 674>
VStem: 144 206<0 856 1031 1587>
LayerCount: 2
UndoRedoHistory
Layer: 1
Undoes
EndUndoes
Redoes
EndRedoes
EndUndoRedoHistory
Fore
SplineSet
144 1760 m 1
 674 1760 l 1
 674 1587 l 1
 350 1587 l 1
 350 1031 l 1
 654 1031 l 1
 654 856 l 1
 350 856 l 1
 350 0 l 1
 144 0 l 1
 144 1760 l 1
EndSplineSet
EndChar

StartChar: G
Encoding: 71 71 36
Width: 939
VWidth: 0
GlyphClass: 2
Flags: W
HStem: -17 172<383.113 568.926> 0 21G<699.882 813> 764 160<480 623> 1602 177<383.318 573.062>
VStem: 124 207<206.98 1550.6> 623 190<211.639 764 1122 1548.66> 704 109<0 69.632>
LayerCount: 2
UndoRedoHistory
Layer: 1
Undoes
EndUndoes
Redoes
EndRedoes
EndUndoRedoHistory
Fore
SplineSet
124 1262 m 2xba
 124 1570 199 1779 482 1779 c 0
 774 1779 813 1568 813 1258 c 2
 813 1122 l 1
 613 1122 l 1
 613 1351 l 2
 613 1522 588 1602 482 1602 c 0
 368 1602 331 1517 331 1271 c 2
 331 531 l 2
 331 261 356 155 476 155 c 0
 590 155 623 261 623 535 c 2
 623 764 l 1xbc
 480 764 l 1
 480 924 l 1
 813 924 l 1
 813 0 l 1
 704 0 l 1x7a
 676 136 l 1
 638 37 556 -17 441 -17 c 0
 237 -17 124 139 124 524 c 2
 124 1262 l 2xba
EndSplineSet
EndChar

StartChar: H
Encoding: 72 72 41
Width: 984
VWidth: 0
GlyphClass: 2
Flags: W
HStem: 0 21G<144 351 633 840> 838 169<351 633> 1740 20G<144 351 633 840>
VStem: 144 207<0 838 1007 1760> 633 207<0 838 1007 1760>
LayerCount: 2
UndoRedoHistory
Layer: 1
Undoes
EndUndoes
Redoes
EndRedoes
EndUndoRedoHistory
Fore
SplineSet
633 1760 m 1
 840 1760 l 1
 840 0 l 1
 633 0 l 1
 633 838 l 1
 351 838 l 1
 351 0 l 1
 144 0 l 1
 144 1760 l 1
 351 1760 l 1
 351 1007 l 1
 633 1007 l 1
 633 1760 l 1
EndSplineSet
EndChar

StartChar: Hbar
Encoding: 294 294 42
Width: 984
VWidth: 0
GlyphClass: 2
Flags: W
HStem: 0 21<144 351 633 840> 838 169<351 633> 1398 106<55 951> 1740 20<144 351 633 840>
VStem: 144 207<0 838 1007 1760> 633 207<0 838 1007 1760>
LayerCount: 2
UndoRedoHistory
Layer: 1
Undoes
EndUndoes
Redoes
EndRedoes
EndUndoRedoHistory
Fore
SplineSet
55 1504 m 1
 951 1504 l 1
 951 1398 l 1
 55 1398 l 1
 55 1504 l 1
EndSplineSet
Refer: 41 72 N 1 0 0 1 0 0 2
EndChar

StartChar: I
Encoding: 73 73 44
Width: 495
VWidth: 0
GlyphClass: 2
Flags: W
HStem: 0 21G<144 351> 1740 20G<144 351>
VStem: 144 207<0 1760>
AnchorPoint: "ogonek" 248 0 basechar 0
LayerCount: 2
UndoRedoHistory
Layer: 1
Undoes
EndUndoes
Redoes
EndRedoes
EndUndoRedoHistory
Fore
SplineSet
144 1760 m 1
 351 1760 l 1
 351 0 l 1
 144 0 l 1
 144 1760 l 1
EndSplineSet
EndChar

StartChar: J
Encoding: 74 74 55
Width: 876
VWidth: 0
GlyphClass: 2
Flags: W
HStem: -21 176<323.399 488.083> 1740 20G<519 726>
VStem: 90 202<181.404 619> 519 207<181.672 1760>
AnchorPoint: "circumflexcomb" 628 1800 basechar 0
LayerCount: 2
UndoRedoHistory
Layer: 1
Undoes
EndUndoes
Redoes
EndRedoes
EndUndoRedoHistory
Fore
SplineSet
519 1760 m 1
 726 1760 l 1
 726 426 l 2
 726 130 623 -21 412 -21 c 0
 189 -21 90 115 90 389 c 2
 90 619 l 1
 292 619 l 1
 292 402 l 2
 292 268 296 155 406 155 c 0
 516 155 519 261 519 418 c 2
 519 1760 l 1
EndSplineSet
EndChar

StartChar: K
Encoding: 75 75 57
Width: 909
VWidth: 0
GlyphClass: 2
Flags: W
HStem: 0 21G<144 353 671.257 895> 1740 20G<144 351 656.539 872>
VStem: 144 209<0 842 921 1760>
LayerCount: 2
UndoRedoHistory
Layer: 1
Undoes
EndUndoes
Redoes
EndRedoes
EndUndoRedoHistory
Fore
SplineSet
664 1760 m 1
 872 1760 l 1
 544 891 l 1
 895 0 l 1
 679 0 l 1
 353 842 l 1
 353 0 l 1
 144 0 l 1
 144 1760 l 1
 351 1760 l 1
 351 921 l 1
 664 1760 l 1
EndSplineSet
EndChar

StartChar: L
Encoding: 76 76 59
Width: 695
VWidth: 0
GlyphClass: 2
Flags: W
HStem: 0 171<351 676> 1740 20G<144 351>
VStem: 144 207<171 1760>
LayerCount: 2
UndoRedoHistory
Layer: 1
Undoes
EndUndoes
Redoes
EndRedoes
EndUndoRedoHistory
Fore
SplineSet
144 1760 m 1
 351 1760 l 1
 351 171 l 1
 676 171 l 1
 676 0 l 1
 144 0 l 1
 144 1760 l 1
EndSplineSet
EndChar

StartChar: Lslash
Encoding: 321 321 64
Width: 748
VWidth: 0
GlyphClass: 2
Flags: W
HStem: 0 171<351 676> 1740 20<144 351>
VStem: 144 207<171 1760>
LayerCount: 2
UndoRedoHistory
Layer: 1
Undoes
EndUndoes
Redoes
EndRedoes
EndUndoRedoHistory
Fore
SplineSet
-1 916 m 1
 554 1139 l 1
 554 987 l 1
 -1 764 l 1
 -1 916 l 1
EndSplineSet
Refer: 59 76 N 1 0 0 1 0 0 2
EndChar

StartChar: M
Encoding: 77 77 65
Width: 1296
VWidth: 0
GlyphClass: 2
Flags: W
HStem: 0 21G<144 320 574.831 731.003 975 1152> 1740 20G<144 385.866 909.318 1152>
VStem: 144 176<0 1220.89> 144 159<769.112 1324> 975 177<0 1220.89> 992 160<769.112 1324>
LayerCount: 2
UndoRedoHistory
Layer: 1
Undoes
EndUndoes
Redoes
EndRedoes
EndUndoRedoHistory
Fore
SplineSet
913 1760 m 1xd0
 1152 1760 l 1xd4
 1152 0 l 1
 975 0 l 1
 975 666 l 1xc8
 992 1324 l 1
 727 0 l 1
 579 0 l 1
 303 1324 l 1xd4
 320 666 l 1
 320 0 l 1
 144 0 l 1xe0
 144 1760 l 1
 382 1760 l 1
 654 353 l 1
 913 1760 l 1xd0
EndSplineSet
EndChar

StartChar: N
Encoding: 78 78 66
Width: 1014
VWidth: 0
GlyphClass: 2
Flags: W
HStem: 0 21G<144 335 711.46 870> 1740 20G<144 306.811 687 870>
VStem: 144 191<0 1208> 687 183<723.523 1760> 718 152<0 43.8428 562 797.388>
LayerCount: 2
UndoRedoHistory
Layer: 1
Undoes
EndUndoes
Redoes
EndRedoes
EndUndoRedoHistory
Fore
SplineSet
687 1760 m 1xf0
 870 1760 l 1xf0
 870 0 l 1
 718 0 l 1xe8
 323 1208 l 1
 335 764 l 1
 335 0 l 1
 144 0 l 1
 144 1760 l 1
 300 1760 l 1
 708 562 l 1
 687 1071 l 1
 687 1760 l 1xf0
EndSplineSet
EndChar

StartChar: O
Encoding: 79 79 71
Width: 944
VWidth: 0
GlyphClass: 2
Flags: W
HStem: -20 178<378.483 566.371> 1604 178<381.988 567.18>
VStem: 124 207<205.493 1553.2> 613 207<205.493 1563.38>
AnchorPoint: "ogonek" 481 0 basechar 0
LayerCount: 2
UndoRedoHistory
Layer: 1
Undoes
EndUndoes
Redoes
EndRedoes
EndUndoRedoHistory
Fore
SplineSet
124 1282 m 2
 124 1585 197 1782 479 1782 c 0
 761 1782 820 1585 820 1282 c 2
 820 506 l 2
 820 153 738 -20 474 -20 c 0
 210 -20 124 153 124 506 c 2
 124 1282 l 2
613 1294 m 2
 613 1505 591 1604 479 1604 c 0
 363 1604 331 1506 331 1295 c 2
 331 504 l 2
 331 244 355 158 474 158 c 0
 588 158 613 246 613 504 c 2
 613 1294 l 2
EndSplineSet
EndChar

StartChar: OE
Encoding: 338 338 72
Width: 1214
VWidth: 0
GlyphClass: 2
Flags: W
HStem: 0 172<382.207 609 815 1117> 812 174<815 1095> 1581 179<381.824 609 815 1112>
VStem: 124 207<222.202 1537.26> 609 206<178 812 986 1581>
LayerCount: 2
UndoRedoHistory
Layer: 1
Undoes
EndUndoes
Redoes
EndRedoes
EndUndoRedoHistory
Fore
SplineSet
478 1760 m 2
 1112 1760 l 1
 1112 1588 l 1
 815 1588 l 1
 815 986 l 1
 1095 986 l 1
 1095 812 l 1
 815 812 l 1
 815 172 l 1
 1117 172 l 1
 1117 0 l 1
 473 0 l 2
 209 0 124 154 124 507 c 2
 124 1282 l 2
 124 1585 196 1760 478 1760 c 2
609 178 m 1
 609 1581 l 1
 478 1581 l 2
 362 1581 331 1504 331 1293 c 2
 331 505 l 2
 331 245 353 179 473 178 c 1
 609 178 l 1
EndSplineSet
EndChar

StartChar: Oslash
Encoding: 216 216 80
Width: 900
VWidth: 0
GlyphClass: 2
Flags: W
HStem: -20 178<378.483 566.371> 1604 178<381.988 567.18>
VStem: 124 207<205.493 1553.2> 613 207<205.493 1563.38>
LayerCount: 2
UndoRedoHistory
Layer: 1
Undoes
EndUndoes
Redoes
EndRedoes
EndUndoRedoHistory
Fore
SplineSet
75 -166 m 1
 803 1906 l 1
 910 1870 l 1
 174 -206 l 1
 75 -166 l 1
EndSplineSet
Refer: 71 79 N 1 0 0 1 0 0 2
EndChar

StartChar: P
Encoding: 80 80 82
Width: 894
VWidth: 0
GlyphClass: 2
Flags: W
HStem: 0 21G<144 351> 691 172<351 567.418> 1596 164<351 571.042>
VStem: 144 207<0 691 863 1596> 623 207<913.418 1541.65>
LayerCount: 2
UndoRedoHistory
Layer: 1
Undoes
EndUndoes
Redoes
EndRedoes
EndUndoRedoHistory
Fore
SplineSet
144 1760 m 1
 498 1760 l 2
 779 1760 827 1566 829 1256 c 0
 830 1253 830 1232 830 1229 c 0
 830 874 763 691 498 691 c 2
 351 691 l 1
 351 0 l 1
 144 0 l 1
 144 1760 l 1
623 1263 m 2
 623 1489 600 1596 482 1596 c 2
 351 1596 l 1
 351 863 l 1
 477 863 l 2
 598 863 623 955 623 1229 c 2
 623 1263 l 2
EndSplineSet
EndChar

StartChar: Q
Encoding: 81 81 83
Width: 944
VWidth: 0
GlyphClass: 2
Flags: W
HStem: -269 21G<648.628 688.935> -20 178<378.483 566.371> 1604 178<381.988 567.18>
VStem: 124 207<205.493 1553.2> 613 207<205.493 1563.38>
LayerCount: 2
UndoRedoHistory
Layer: 1
Undoes
EndUndoes
Redoes
EndRedoes
EndUndoRedoHistory
Fore
SplineSet
430 -11 m 1
 569 56 l 1
 769 -176 l 1
 667 -269 l 1
 430 -11 l 1
EndSplineSet
Refer: 71 79 N 1 0 0 1 0 0 2
EndChar

StartChar: R
Encoding: 82 82 84
Width: 939
VWidth: 0
GlyphClass: 2
Flags: W
HStem: 0 21G<144 351 631.5 845> 843 159<351 589.133> 1596 164<351 585.232>
VStem: 144 207<0 850 1002 1596> 623 205<51.1637 816.94 1034.59 1567.37>
LayerCount: 2
UndoRedoHistory
Layer: 1
Undoes
EndUndoes
Redoes
EndRedoes
EndUndoRedoHistory
Fore
SplineSet
144 1760 m 1
 513 1760 l 2
 792 1760 828 1612 828 1311 c 0
 828 1094 793 965 667 928 c 1
 796 906 829 775 829 301 c 0
 829 243 829 42 845 0 c 1
 639 0 l 1
 624 30 623 247 623 593 c 0
 623 793 611 842 474 843 c 1
 351 850 l 1
 351 0 l 1
 144 0 l 1
 144 1760 l 1
623 1329 m 2
 623 1553 602 1596 481 1596 c 2
 351 1596 l 1
 351 1002 l 1
 483 1002 l 2
 597 1002 623 1046 623 1317 c 2
 623 1329 l 2
EndSplineSet
EndChar

StartChar: S
Encoding: 83 83 88
Width: 828
VWidth: 0
GlyphClass: 2
Flags: W
HStem: -20 177<338.11 530.728> 1605 177<322.858 503.957>
VStem: 88 201<204.951 680 1190.77 1576.34> 543 198<1165 1564.91> 564 203<189.194 651.932>
AnchorPoint: "cedilla" 430 0 basechar 0
LayerCount: 2
UndoRedoHistory
Layer: 1
Undoes
EndUndoes
Redoes
EndRedoes
EndUndoRedoHistory
Fore
SplineSet
79 1349 m 0xe8
 79 1614 146 1782 419 1782 c 0
 705 1782 741 1573 741 1269 c 2
 741 1165 l 1
 543 1165 l 1
 543 1283 l 2xf0
 543 1496 528 1605 419 1605 c 0
 318 1605 278 1534 278 1374 c 0
 278 1233 330 1187 431 1082 c 1
 551 955 l 2
 677 823 767 665 767 449 c 0
 767 157 699 -20 428 -20 c 0
 142 -20 88 198 88 509 c 2
 88 680 l 1
 289 680 l 1
 289 501 l 2
 289 254 313 157 430 157 c 0
 552 157 564 237 564 443 c 0
 564 600 507 705 403 809 c 2
 288 924 l 2
 188 1025 79 1151 79 1349 c 0xe8
EndSplineSet
EndChar

StartChar: T
Encoding: 84 84 94
Width: 629
VWidth: 0
GlyphClass: 2
Flags: W
HStem: 0 21G<218 424> 1588 172<24 218 424 605>
VStem: 218 206<0 1588>
AnchorPoint: "cedilla" 321 0 basechar 0
LayerCount: 2
UndoRedoHistory
Layer: 1
Undoes
EndUndoes
Redoes
EndRedoes
EndUndoRedoHistory
Fore
SplineSet
24 1760 m 1
 605 1760 l 1
 605 1588 l 1
 424 1588 l 1
 424 0 l 1
 218 0 l 1
 218 1588 l 1
 24 1588 l 1
 24 1760 l 1
EndSplineSet
EndChar

StartChar: Thorn
Encoding: 222 222 96
Width: 927
VWidth: 0
GlyphClass: 2
Flags: W
HStem: 0 21G<162 368> 422 172<368 584.418> 1335 165<368 588.552> 1740 20G<162 368>
VStem: 162 206<0 422 594 1335 1500 1760> 641 206<646.976 1286.87>
LayerCount: 2
UndoRedoHistory
Layer: 1
Undoes
EndUndoes
Redoes
EndRedoes
EndUndoRedoHistory
Fore
SplineSet
162 1760 m 1
 368 1760 l 1
 368 1500 l 1
 515 1500 l 2
 798 1500 846 1300 847 987 c 1
 847 963 l 2
 847 609 780 422 515 422 c 2
 368 422 l 1
 368 0 l 1
 162 0 l 1
 162 1760 l 1
641 994 m 2
 641 1222 619 1335 499 1335 c 2
 368 1335 l 1
 368 594 l 1
 495 594 l 2
 616 594 641 689 641 964 c 2
 641 994 l 2
EndSplineSet
EndChar

StartChar: U
Encoding: 85 85 97
Width: 954
VWidth: 0
GlyphClass: 2
Flags: W
HStem: -21 175<377.953 579.893> 1740 20G<130 337 619 825>
VStem: 130 207<192.595 1760> 619 206<190.446 1760>
AnchorPoint: "ogonek" 482 0 basechar 0
LayerCount: 2
UndoRedoHistory
Layer: 1
Undoes
EndUndoes
Redoes
EndRedoes
EndUndoRedoHistory
Fore
SplineSet
619 1760 m 1
 825 1760 l 1
 825 452 l 2
 825 132 740 -21 479 -21 c 0
 218 -21 130 132 130 452 c 2
 130 1760 l 1
 337 1760 l 1
 337 457 l 2
 337 267 343 154 479 154 c 0
 616 154 619 266 619 456 c 2
 619 1760 l 1
EndSplineSet
EndChar

StartChar: V
Encoding: 86 86 108
Width: 883
VWidth: 0
GlyphClass: 2
Flags: W
HStem: 0 21G<330.67 578.034> 1740 20G<41 241.141 644.289 842>
LayerCount: 2
UndoRedoHistory
Layer: 1
Undoes
EndUndoes
Redoes
EndRedoes
EndUndoRedoHistory
Fore
SplineSet
647 1760 m 1
 842 1760 l 1
 575 0 l 1
 334 0 l 1
 41 1760 l 1
 238 1760 l 1
 355 1015 l 1
 455 360 l 1
 459 360 l 1
 546 1015 l 1
 647 1760 l 1
EndSplineSet
EndChar

StartChar: W
Encoding: 87 87 109
Width: 1340
VWidth: 0
GlyphClass: 2
Flags: W
HStem: 0 21G<283.364 489.064 870.105 1080.36> 1740 20G<54 247.224 592.035 767.039 1094.12 1286>
VStem: 54 191<1651.24 1760> 1096 190<1638.7 1760>
LayerCount: 2
UndoRedoHistory
Layer: 1
Undoes
EndUndoes
Redoes
EndRedoes
EndUndoRedoHistory
Fore
SplineSet
1096 1760 m 1
 1286 1760 l 1
 1078 0 l 1
 873 0 l 1
 685 1299 l 1
 486 0 l 1
 286 0 l 1
 54 1760 l 1
 245 1760 l 1
 395 411 l 1
 595 1760 l 1
 764 1760 l 1
 969 411 l 1
 1096 1760 l 1
EndSplineSet
EndChar

StartChar: X
Encoding: 88 88 114
Width: 796
VWidth: 0
GlyphClass: 2
Flags: W
HStem: 0 21G<45 239.197 565.112 751> 1740 20G<53 239.87 551.846 743>
VStem: 571 180<0 48.6943 1709.09 1760>
LayerCount: 2
UndoRedoHistory
Layer: 1
Undoes
EndUndoes
Redoes
EndRedoes
EndUndoRedoHistory
Fore
SplineSet
557 1760 m 1
 743 1760 l 1
 499 857 l 1
 751 0 l 1
 571 0 l 1
 392 608 l 1
 234 0 l 1
 45 0 l 1
 297 932 l 1
 53 1760 l 1
 234 1760 l 1
 406 1174 l 1
 557 1760 l 1
EndSplineSet
EndChar

StartChar: Y
Encoding: 89 89 115
Width: 827
VWidth: 0
GlyphClass: 2
Flags: W
HStem: 0 21G<321 528> 1740 20G<15 225.706 600.049 812>
VStem: 321 207<0 786.834>
LayerCount: 2
UndoRedoHistory
Layer: 1
Undoes
EndUndoes
Redoes
EndRedoes
EndUndoRedoHistory
Fore
SplineSet
605 1760 m 1
 812 1760 l 1
 528 739 l 1
 528 0 l 1
 321 0 l 1
 321 739 l 1
 15 1760 l 1
 220 1760 l 1
 424 1045 l 1
 428 1045 l 1
 605 1760 l 1
EndSplineSet
EndChar

StartChar: Z
Encoding: 90 90 120
Width: 690
VWidth: 0
GlyphClass: 2
Flags: W
HStem: 0 172<283 638> 1588 172<102 432>
VStem: 69 577
LayerCount: 2
UndoRedoHistory
Layer: 1
Undoes
EndUndoes
Redoes
EndRedoes
EndUndoRedoHistory
Fore
SplineSet
102 1760 m 1
 646 1760 l 1
 646 1602 l 1
 283 172 l 1
 638 172 l 1
 638 0 l 1
 69 0 l 1
 69 179 l 1
 432 1588 l 1
 102 1588 l 1
 102 1760 l 1
EndSplineSet
EndChar

StartChar: a
Encoding: 97 97 124
Width: 902
VWidth: 0
GlyphClass: 2
Flags: W
HStem: -13 166<350.134 503.131> 1347 171<372.282 545.466>
VStem: 113 207<182.355 700.246> 132 204<1023 1312.44> 573 207<0 130 193.426 827 945.256 1319.76>
AnchorPoint: "ogonek" 676 0 basechar 0
LayerCount: 2
UndoRedoHistory
Layer: 1
Undoes
EndUndoes
Redoes
EndRedoes
EndUndoRedoHistory
Fore
SplineSet
573 827 m 1xe8
 367 735 320 701 320 530 c 2
 320 391 l 2
 320 221 343 153 428 153 c 0
 500 153 556 211 573 256 c 1
 573 827 l 1xe8
132 1066 m 2xd8
 132 1322 176 1518 462 1518 c 0
 733 1518 780 1343 780 1021 c 2
 780 0 l 1
 574 0 l 1
 574 130 l 1
 556 69 487 -13 370 -13 c 0
 188 -13 114 136 113 385 c 1
 113 531 l 2xe8
 113 796 307 853 573 960 c 1
 573 1076 l 2
 573 1267 566 1347 458 1347 c 0
 351 1347 336 1267 336 1075 c 2
 336 1023 l 1
 132 1023 l 1
 132 1066 l 2xd8
EndSplineSet
EndChar

StartChar: acute
Encoding: 180 180 128
Width: 567
VWidth: 0
GlyphClass: 2
Flags: W
HStem: 1341 419<252 277>
VStem: 166 285
LayerCount: 2
UndoRedoHistory
Layer: 1
Undoes
EndUndoes
Redoes
EndRedoes
EndUndoRedoHistory
Fore
SplineSet
277 1341 m 1
 166 1341 l 1
 252 1760 l 1
 451 1760 l 1
 277 1341 l 1
EndSplineSet
EndChar

StartChar: ae
Encoding: 230 230 130
Width: 1356
VWidth: 0
GlyphClass: 2
Flags: W
HStem: -18 171<360.971 543.69 830.283 1001.48> 740 149<792 1036> 1347 171<378.928 556.146 830.575 1008.53>
VStem: 126 207<176.165 697.906> 145 204<1023 1320.75> 585 207<195.135 740 947.123 1310.24> 1036 202<183.664 562 889 1318.33>
LayerCount: 2
UndoRedoHistory
Layer: 1
Undoes
EndUndoes
Redoes
EndRedoes
EndUndoRedoHistory
Fore
SplineSet
691 1418 m 1xee
 739 1483 814 1518 925 1518 c 0
 1200 1518 1241 1315 1241 1026 c 1
 1241 1026 1241 750 1240 740 c 1
 792 740 l 1
 792 457 l 2
 792 252 807 153 919 153 c 0
 1032 153 1036 276 1036 451 c 2
 1036 562 l 1
 1238 562 l 1
 1238 502 l 2
 1238 193 1214 -18 925 -18 c 0
 794 -18 713 32 670 115 c 1
 624 56 512 -13 404 -13 c 0
 217 -13 126 135 126 390 c 2
 126 537 l 1xf6
 128 797 319 854 586 962 c 1
 586 1063 l 1
 585 1252 579 1347 470 1347 c 0
 365 1347 349 1270 349 1077 c 2
 349 1023 l 1
 145 1023 l 1
 145 1066 l 2
 145 1322 189 1518 475 1518 c 0
 589 1518 654 1484 691 1418 c 1xee
585 257 m 1
 585 822 l 1
 378 729 333 698 333 527 c 2
 333 391 l 2
 333 221 356 153 441 153 c 0
 513 153 569 212 585 257 c 1
1036 1073 m 2
 1036 1252 1030 1349 924 1349 c 0
 805 1349 792 1233 792 1060 c 2
 792 889 l 1
 1036 889 l 1
 1036 1073 l 2
EndSplineSet
EndChar

StartChar: ampersand
Encoding: 38 38 133
Width: 958
VWidth: 0
GlyphClass: 2
Flags: W
HStem: -20 178<297.216 491.652> 0 21G<731.471 923> 1618 164<400.21 577.009>
VStem: 69 191<196.293 576.919> 188 185<1221.68 1593.47> 599 163<1234.58 1598.19>
LayerCount: 2
UndoRedoHistory
Layer: 1
Undoes
EndUndoes
Redoes
EndRedoes
EndUndoRedoHistory
Fore
SplineSet
481 1782 m 0xac
 687 1782 762 1652 762 1431 c 0
 762 1237 648 1053 533 898 c 1
 691 517 l 1
 736 607 791 704 863 797 c 1
 950 651 l 1
 872 551 817 437 770 328 c 1
 923 0 l 1
 741 0 l 1x6c
 660 170 l 1
 595 57 521 -20 373 -20 c 0xac
 204 -20 69 95 69 337 c 0xb4
 69 595 198 771 333 937 c 1
 250 1149 188 1339 188 1434 c 0
 188 1661 302 1782 481 1782 c 0xac
579 354 m 1
 408 770 l 1
 326 652 268 521 260 385 c 1
 253 244 290 158 401 158 c 0xb4
 482 158 522 234 579 354 c 1
464 1072 m 1
 542 1179 599 1306 599 1436 c 0
 599 1563 580 1618 489 1618 c 0
 371 1618 373 1506 373 1432 c 0x2c
 373 1366 411 1223 464 1072 c 1
EndSplineSet
EndChar

StartChar: approxequal
Encoding: 8776 8776 135
Width: 1117
VWidth: 0
GlyphClass: 2
Flags: W
HStem: 402 214<569.88 803.339> 494 210<294.306 559.248> 848 214<569.88 803.339> 940 210<294.306 559.248>
VStem: 837 164<650.491 692.671 1096.49 1138.67>
LayerCount: 2
UndoRedoHistory
Layer: 1
Undoes
EndUndoes
Redoes
EndRedoes
EndUndoRedoHistory
Fore
SplineSet
743 1062 m 1x28
 777 1066 814 1101 837 1177 c 1
 1001 1135 l 1
 967 999 881 848 772 848 c 0x28
 658 848 469 940 363 940 c 0
 325 940 295 910 268 847 c 1
 119 925 l 1
 170 1071 247 1150 349 1150 c 0x18
 453 1150 679 1062 743 1062 c 1x28
743 616 m 1x88
 777 620 814 655 837 731 c 1
 1001 689 l 1
 967 553 881 402 772 402 c 0x88
 658 402 469 494 363 494 c 0
 325 494 295 464 268 401 c 1
 119 479 l 1
 170 624 247 704 349 704 c 0x48
 453 704 679 616 743 616 c 1x88
EndSplineSet
EndChar

StartChar: asciicircum
Encoding: 94 94 137
Width: 919
VWidth: 0
GlyphClass: 2
Flags: W
HStem: 1740 20G<323.778 595.222>
LayerCount: 2
UndoRedoHistory
Layer: 1
Undoes
EndUndoes
Redoes
EndRedoes
EndUndoRedoHistory
Fore
SplineSet
329 1760 m 1
 590 1760 l 1
 831 837 l 1
 630 837 l 1
 460 1600 l 1
 290 837 l 1
 88 837 l 1
 329 1760 l 1
EndSplineSet
EndChar

StartChar: asciitilde
Encoding: 126 126 138
Width: 1117
VWidth: 0
GlyphClass: 2
Flags: W
HStem: 832 214<561.88 795.339> 924 210<286.105 551.248>
LayerCount: 2
UndoRedoHistory
Layer: 1
Undoes
EndUndoes
Redoes
EndRedoes
EndUndoRedoHistory
Fore
SplineSet
735 1046 m 1x80
 769 1050 806 1085 829 1161 c 1
 993 1119 l 1
 959 983 873 832 764 832 c 0x80
 650 832 461 924 355 924 c 0
 315 924 287 893 260 831 c 1
 111 909 l 1
 162 1055 239 1134 341 1134 c 0x40
 445 1134 671 1046 735 1046 c 1x80
EndSplineSet
EndChar

StartChar: asterisk
Encoding: 42 42 139
Width: 874
VWidth: 0
GlyphClass: 2
Flags: W
HStem: 1740 20G<357 517>
LayerCount: 2
UndoRedoHistory
Layer: 1
Undoes
EndUndoes
Redoes
EndRedoes
EndUndoRedoHistory
Fore
SplineSet
357 1760 m 1
 517 1760 l 1
 493 1487 l 1
 719 1659 l 1
 800 1520 l 1
 543 1394 l 1
 800 1261 l 1
 719 1121 l 1
 493 1299 l 1
 517 1021 l 1
 357 1021 l 1
 387 1304 l 1
 160 1128 l 1
 80 1268 l 1
 330 1394 l 1
 74 1513 l 1
 155 1652 l 1
 386 1484 l 1
 357 1760 l 1
EndSplineSet
EndChar

StartChar: at
Encoding: 64 64 140
Width: 1522
VWidth: 0
GlyphClass: 2
Flags: W
HStem: 320 127<663.374 849.311> 337 140<1092.33 1200.34> 1636 143<600.711 1007.27>
VStem: 124 167<471.733 1227.05> 453 144<524.083 1113.03> 930 144<540.516 1256.52> 1249 149<557.496 1310.66>
CounterMasks: 1 1e
LayerCount: 2
UndoRedoHistory
Layer: 1
Undoes
EndUndoes
Redoes
EndRedoes
EndUndoRedoHistory
Fore
SplineSet
124 836 m 0x7e
 124 1400 319 1779 823 1779 c 0
 1226 1779 1398 1440 1398 910 c 0
 1398 604 1324 337 1142 337 c 0x7e
 1058 337 983 436 958 550 c 1
 933 411 850 320 748 320 c 0xbe
 576 320 453 477 453 804 c 0
 453 1093 543 1548 1074 1320 c 1
 1074 672 l 2
 1074 546 1092 477 1149 477 c 0
 1223 477 1249 634 1249 942 c 0
 1249 1286 1191 1636 809 1636 c 0
 427 1636 291 1315 291 833 c 0
 291 189 585 -64 1256 172 c 1
 1279 33 l 1
 480 -236 124 128 124 836 c 0x7e
930 718 m 2
 930 1242 l 1
 688 1338 597 1133 597 810 c 0
 597 584 635 447 758 447 c 0xbe
 851 447 930 568 930 718 c 2
EndSplineSet
EndChar

StartChar: b
Encoding: 98 98 142
Width: 940
VWidth: 0
GlyphClass: 2
Flags: W
HStem: -13 167<424.423 569.865> 1346 172<418.427 576.032> 1759 20G<149 354>
VStem: 149 205<0 126 196.662 1305.8 1381 1779> 610 206<193.299 1309.89>
LayerCount: 2
UndoRedoHistory
Layer: 1
Undoes
EndUndoes
Redoes
EndRedoes
EndUndoRedoHistory
Fore
SplineSet
610 1067 m 2
 610 1234 599 1346 494 1346 c 0
 404 1346 354 1304 354 1066 c 2
 354 458 l 2
 354 255 376 154 490 154 c 1
 590 155 610 250 610 463 c 2
 610 1067 l 2
354 1381 m 1
 377 1466 464 1518 545 1518 c 0
 768 1518 816 1310 816 1040 c 2
 816 463 l 2
 816 192 770 -13 558 -13 c 0
 476 -13 396 25 354 126 c 1
 354 0 l 1
 149 0 l 1
 149 1779 l 1
 354 1779 l 1
 354 1381 l 1
EndSplineSet
EndChar

StartChar: backslash
Encoding: 92 92 143
Width: 736
VWidth: 0
GlyphClass: 2
Flags: W
HStem: 0 21G<478.33 664> 1740 20G<72 258.659>
VStem: 72 592
LayerCount: 2
UndoRedoHistory
Layer: 1
Undoes
EndUndoes
Redoes
EndRedoes
EndUndoRedoHistory
Fore
SplineSet
72 1760 m 1
 254 1760 l 1
 664 0 l 1
 483 0 l 1
 72 1760 l 1
EndSplineSet
EndChar

StartChar: bar
Encoding: 124 124 144
Width: 537
VWidth: 0
GlyphClass: 2
Flags: W
VStem: 175 197<-124 1837>
LayerCount: 2
UndoRedoHistory
Layer: 1
Undoes
EndUndoes
Redoes
EndRedoes
EndUndoRedoHistory
Fore
SplineSet
175 1837 m 1
 372 1837 l 1
 372 -124 l 1
 175 -124 l 1
 175 1837 l 1
EndSplineSet
EndChar

StartChar: braceleft
Encoding: 123 123 145
Width: 657
VWidth: 0
GlyphClass: 2
Flags: W
HStem: -220 167<465.035 581> 681 200<99 215.75> 1615 167<465.035 581>
VStem: 238 204<-36.5709 660.831 901.169 1598.57>
LayerCount: 2
UndoRedoHistory
Layer: 1
Undoes
EndUndoes
Redoes
EndRedoes
EndUndoRedoHistory
Fore
SplineSet
521 1782 m 2
 581 1782 l 1
 581 1615 l 1
 459 1615 442 1590 442 1431 c 2
 442 1135 l 2
 442 872 420 824 276 781 c 1
 420 738 442 690 442 427 c 2
 442 131 l 2
 442 -28 459 -53 581 -53 c 1
 581 -220 l 1
 521 -220 l 2
 309 -220 238 -143 238 118 c 2
 238 453 l 2
 238 645 225 681 99 681 c 1
 99 881 l 1
 225 881 238 917 238 1109 c 2
 238 1444 l 2
 238 1705 309 1782 521 1782 c 2
EndSplineSet
EndChar

StartChar: braceright
Encoding: 125 125 146
Width: 657
VWidth: 0
GlyphClass: 2
Flags: W
HStem: -220 167<76 191.965> 681 200<441.25 558> 1615 167<76 191.965>
VStem: 215 204<-36.5709 660.831 901.169 1598.57>
LayerCount: 2
UndoRedoHistory
Layer: 1
Undoes
EndUndoes
Redoes
EndRedoes
EndUndoRedoHistory
Fore
SplineSet
136 1782 m 2
 348 1782 419 1705 419 1444 c 2
 419 1109 l 2
 419 917 432 881 558 881 c 1
 558 681 l 1
 432 681 419 645 419 453 c 2
 419 118 l 2
 419 -143 348 -220 136 -220 c 2
 76 -220 l 1
 76 -53 l 1
 198 -53 215 -28 215 131 c 2
 215 427 l 2
 215 690 237 738 381 781 c 1
 237 824 215 872 215 1135 c 2
 215 1431 l 2
 215 1590 198 1615 76 1615 c 1
 76 1782 l 1
 136 1782 l 2
EndSplineSet
EndChar

StartChar: bracketleft
Encoding: 91 91 147
Width: 628
VWidth: 0
GlyphClass: 2
Flags: W
HStem: -120 160<350 559> 1601 159<350 559>
VStem: 144 415<-120 40 1601 1760> 144 206<40 1601>
LayerCount: 2
UndoRedoHistory
Layer: 1
Undoes
EndUndoes
Redoes
EndRedoes
EndUndoRedoHistory
Fore
SplineSet
144 1760 m 1xe0
 559 1760 l 1
 559 1601 l 1xe0
 350 1601 l 1
 350 40 l 1xd0
 559 40 l 1
 559 -120 l 1
 144 -120 l 1
 144 1760 l 1xe0
EndSplineSet
EndChar

StartChar: bracketright
Encoding: 93 93 148
Width: 628
VWidth: 0
GlyphClass: 2
Flags: W
HStem: -120 160<69 278> 1601 159<69 278>
VStem: 69 415<-120 40 1601 1760> 278 206<40 1601>
LayerCount: 2
UndoRedoHistory
Layer: 1
Undoes
EndUndoes
Redoes
EndRedoes
EndUndoRedoHistory
Fore
SplineSet
484 1760 m 1xe0
 484 -120 l 1
 69 -120 l 1
 69 40 l 1xe0
 278 40 l 1
 278 1601 l 1xd0
 69 1601 l 1
 69 1760 l 1
 484 1760 l 1xe0
EndSplineSet
EndChar

StartChar: breve
Encoding: 728 728 149
Width: 1016
VWidth: 0
GlyphClass: 2
Flags: W
HStem: 1617 118<397.497 615.838>
VStem: 271 106<1756.26 1856> 635 106<1758.01 1856>
LayerCount: 2
UndoRedoHistory
Layer: 1
Undoes
EndUndoes
Redoes
EndRedoes
EndUndoRedoHistory
Fore
SplineSet
635 1856 m 1
 741 1856 l 1
 741 1843 l 2
 741 1700 665 1617 505 1617 c 0
 351 1617 271 1698 271 1841 c 2
 271 1856 l 1
 377 1856 l 1
 377 1756 440 1735 507 1735 c 0
 572 1735 635 1753 635 1856 c 1
EndSplineSet
EndChar

StartChar: brokenbar
Encoding: 166 166 150
Width: 485
VWidth: 0
GlyphClass: 2
Flags: W
HStem: 1740 20G<144 341>
VStem: 144 197<-149 690 930 1760>
LayerCount: 2
UndoRedoHistory
Layer: 1
Undoes
EndUndoes
Redoes
EndRedoes
EndUndoRedoHistory
Fore
SplineSet
144 1760 m 1
 341 1760 l 1
 341 930 l 1
 144 930 l 1
 144 1760 l 1
144 690 m 1
 341 690 l 1
 341 -149 l 1
 144 -149 l 1
 144 690 l 1
EndSplineSet
EndChar

StartChar: bullet
Encoding: 8226 8226 151
Width: 861
VWidth: 0
GlyphClass: 2
Flags: W
HStem: 483 516<280.574 580.217>
VStem: 197 467<572.192 909.808>
LayerCount: 2
UndoRedoHistory
Layer: 1
Undoes
EndUndoes
Redoes
EndRedoes
EndUndoRedoHistory
Fore
SplineSet
197 741 m 0
 197 906 278 999 430 999 c 0
 583 999 664 906 664 741 c 0
 664 576 583 483 430 483 c 0
 278 483 197 576 197 741 c 0
EndSplineSet
EndChar

StartChar: c
Encoding: 99 99 152
Width: 878
VWidth: 0
GlyphClass: 2
Flags: W
HStem: -18 176<368.272 541.849> 1342 176<372.716 546.028>
VStem: 124 206<191.086 1301.2> 573 202<192.107 576 947 1320.46>
AnchorPoint: "cedilla" 460 0 basechar 0
LayerCount: 2
UndoRedoHistory
Layer: 1
Undoes
EndUndoes
Redoes
EndRedoes
EndUndoRedoHistory
Fore
SplineSet
124 1008 m 2
 124 1308 176 1518 464 1518 c 0
 730 1518 775 1332 775 1051 c 2
 775 947 l 1
 573 947 l 1
 573 1079 l 2
 573 1250 570 1342 462 1342 c 0
 348 1342 330 1239 330 1073 c 2
 330 435 l 2
 330 249 343 158 456 158 c 0
 564 158 573 260 573 431 c 2
 573 576 l 1
 775 576 l 1
 775 479 l 2
 775 184 734 -18 459 -18 c 0
 169 -18 124 190 124 506 c 2
 124 1008 l 2
EndSplineSet
EndChar

StartChar: caron
Encoding: 711 711 154
Width: 970
VWidth: 0
GlyphClass: 2
Flags: W
HStem: 1592 294<369 399 571 601>
VStem: 215 539
LayerCount: 2
UndoRedoHistory
Layer: 1
Undoes
EndUndoes
Redoes
EndRedoes
EndUndoRedoHistory
Fore
SplineSet
571 1886 m 1
 754 1886 l 1
 601 1592 l 1
 369 1592 l 1
 215 1886 l 1
 399 1886 l 1
 485 1681 l 1
 571 1886 l 1
EndSplineSet
EndChar

StartChar: cedilla
Encoding: 184 184 159
Width: 345
VWidth: 0
GlyphClass: 2
Flags: W
HStem: -617 116<43.8743 226.601> -20 20G<148.918 223.667>
VStem: 273 164<-457.581 -259.189>
AnchorPoint: "cedilla" 120 0 mark 0
LayerCount: 2
UndoRedoHistory
Layer: 1
Undoes
EndUndoes
Redoes
EndRedoes
EndUndoRedoHistory
Fore
SplineSet
153 0 m 1
 222 0 l 1
 234 -144 l 1
 373 -202 437 -294 437 -385 c 0
 437 -507 328 -617 159 -617 c 0
 121 -617 82 -611 42 -599 c 1
 42 -501 l 1
 231 -501 273 -434 273 -359 c 0
 273 -269 195 -214 113 -196 c 1
 153 0 l 1
EndSplineSet
EndChar

StartChar: cent
Encoding: 162 162 160
Width: 878
VWidth: 0
GlyphClass: 2
Flags: W
HStem: -250 255<402 515> -18 176<368.272 541.849> 1342 176<372.716 546.028> 1512 255<402 515>
VStem: 124 206<191.086 1301.2> 402 113<-250 5 1512 1767> 573 202<192.107 576 947 1320.46>
CounterMasks: 1 b0
LayerCount: 2
UndoRedoHistory
Layer: 1
Undoes
EndUndoes
Redoes
EndRedoes
EndUndoRedoHistory
Fore
SplineSet
402 1767 m 1x1e
 515 1767 l 1
 515 1510 l 1
 402 1512 l 1
 402 1767 l 1x1e
402 5 m 1x8e
 515 5 l 1
 515 -250 l 1
 402 -250 l 1
 402 5 l 1x8e
EndSplineSet
Refer: 152 99 N 1 0 0 1 0 0 2
EndChar

StartChar: circumflex
Encoding: 710 710 161
Width: 970
VWidth: 0
GlyphClass: 2
Flags: W
HStem: 1592 294<369 399 571 601>
VStem: 215 539
LayerCount: 2
UndoRedoHistory
Layer: 1
Undoes
EndUndoes
Redoes
EndRedoes
EndUndoRedoHistory
Fore
SplineSet
369 1886 m 1
 601 1886 l 1
 754 1592 l 1
 571 1592 l 1
 485 1797 l 1
 399 1592 l 1
 215 1592 l 1
 369 1886 l 1
EndSplineSet
EndChar

StartChar: colon
Encoding: 58 58 162
Width: 489
VWidth: 0
GlyphClass: 2
Flags: W
HStem: 270 260<132 357> 1047 260<132 357>
VStem: 132 225<270 530 1047 1307>
LayerCount: 2
UndoRedoHistory
Layer: 1
Undoes
EndUndoes
Redoes
EndRedoes
EndUndoRedoHistory
Fore
SplineSet
132 1307 m 1
 357 1307 l 1
 357 1047 l 1
 132 1047 l 1
 132 1307 l 1
132 530 m 1
 357 530 l 1
 357 270 l 1
 132 270 l 1
 132 530 l 1
EndSplineSet
EndChar

StartChar: comma
Encoding: 44 44 163
Width: 462
VWidth: 0
GlyphClass: 2
Flags: W
HStem: 0 235<119 243>
VStem: 119 258<0 235> 170 106<-344 -293.895>
LayerCount: 2
UndoRedoHistory
Layer: 1
Undoes
EndUndoes
Redoes
EndRedoes
EndUndoRedoHistory
Fore
SplineSet
119 235 m 1xc0
 377 235 l 1
 377 9 l 1xc0
 276 -344 l 1
 170 -344 l 1xa0
 243 0 l 1
 119 0 l 1
 119 235 l 1xc0
EndSplineSet
EndChar

StartChar: commaaccentcomb
Encoding: 806 806 164
Width: 528
VWidth: 0
GlyphClass: 2
Flags: W
HStem: -99 227<145 253>
VStem: 145 234<-99 128> 204 90<-387 -336.908>
LayerCount: 2
UndoRedoHistory
Layer: 1
Undoes
EndUndoes
Redoes
EndRedoes
EndUndoRedoHistory
Fore
SplineSet
145 128 m 1xc0
 379 128 l 1
 379 -90 l 1xc0
 294 -387 l 1
 204 -387 l 1xa0
 253 -99 l 1
 145 -99 l 1
 145 128 l 1xc0
EndSplineSet
EndChar

StartChar: copyright
Encoding: 169 169 165
Width: 1466
VWidth: 0
GlyphClass: 2
Flags: W
HStem: 205 129<526.912 955.088> 424 112<659.214 808.411> 1189 116<659.893 806.351> 1390 129<526.912 955.088>
VStem: 84 141<645.835 1077.36> 527 125<545.078 1181.63> 815 129<543.398 765 977 1180.93> 1257 141<646.642 1078.17>
CounterMasks: 2 f0 0f
LayerCount: 2
UndoRedoHistory
Layer: 1
Undoes
EndUndoes
Redoes
EndRedoes
EndUndoRedoHistory
Fore
SplineSet
527 1089 m 2
 527 1217 571 1305 736 1305 c 0
 870 1305 940 1259 940 1095 c 2
 940 977 l 1
 815 977 l 1
 815 1084 l 2
 815 1182 780 1189 738 1189 c 0
 695 1189 652 1181 652 1097 c 2
 652 616 l 2
 652 547 695 536 738 536 c 0
 780 536 815 546 815 616 c 2
 815 765 l 1
 944 765 l 1
 944 623 l 2
 944 497 894 424 732 424 c 0
 593 424 527 507 527 628 c 2
 527 1089 l 2
84 862 m 0
 84 1235 368 1519 741 1519 c 0
 1114 1519 1398 1235 1398 862 c 0
 1398 489 1114 205 741 205 c 0
 368 205 84 489 84 862 c 0
741 1390 m 0
 397 1390 225 1125 225 861 c 0
 225 597 397 334 741 334 c 0
 1085 334 1257 599 1257 863 c 0
 1257 1127 1085 1390 741 1390 c 0
EndSplineSet
EndChar

StartChar: currency
Encoding: 164 164 166
Width: 1159
VWidth: 0
GlyphClass: 2
Flags: W
HStem: 545 158<436.67 717.069> 1224 161<437.349 723.215>
VStem: 163 173<806.967 1119.12> 823 175<810.084 1122.71>
LayerCount: 2
UndoRedoHistory
Layer: 1
Undoes
EndUndoes
Redoes
EndRedoes
EndUndoRedoHistory
Fore
SplineSet
797 1331 m 1
 884 1418 l 1
 1034 1269 l 1
 944 1179 l 1
 980 1114 998 1043 998 964 c 0
 998 885 980 813 944 748 c 1
 1034 658 l 1
 884 509 l 1
 795 597 l 1
 733 562 661 545 579 545 c 0
 496 545 424 563 363 598 c 1
 274 509 l 1
 125 659 l 1
 216 750 l 1
 181 815 163 887 163 964 c 0
 163 1042 180 1113 215 1178 c 1
 125 1268 l 1
 274 1418 l 1
 361 1330 l 1
 426 1367 498 1385 579 1385 c 0
 659 1385 732 1367 797 1331 c 1
823 966 m 0
 823 1114 730 1224 579 1224 c 0
 432 1224 336 1108 336 964 c 0
 336 819 431 703 579 703 c 0
 727 703 823 822 823 966 c 0
EndSplineSet
EndChar

StartChar: d
Encoding: 100 100 167
Width: 939
VWidth: 0
GlyphClass: 2
Flags: W
HStem: 0 154<367.75 532.166> 1346 172<369.437 528.916> 1759 20G<586 792>
VStem: 124 206<191.247 1303.91> 586 206<0 126 193.052 1307.19 1400 1779>
LayerCount: 2
UndoRedoHistory
Layer: 1
Undoes
EndUndoes
Redoes
EndRedoes
EndUndoRedoHistory
Fore
SplineSet
586 1779 m 1
 792 1779 l 1
 792 0 l 1
 586 0 l 1
 586 126 l 1
 546 27 468 -13 379 -13 c 0
 157 -13 124 200 124 480 c 2
 124 1047 l 2
 124 1314 185 1518 410 1518 c 0
 488 1518 554 1466 586 1400 c 1
 586 1779 l 1
587 1050 m 2
 587 1245 566 1346 455 1346 c 1
 355 1345 330 1251 330 1045 c 2
 330 439 l 2
 330 265 347 154 450 154 c 0
 544 154 587 209 587 448 c 2
 587 1050 l 2
EndSplineSet
EndChar

StartChar: dagger
Encoding: 8224 8224 168
Width: 909
VWidth: 0
GlyphClass: 2
Flags: W
HStem: 0 21G<352 560> 1017 165<91 352 560 818>
VStem: 352 208<0 1017 1182 1592>
LayerCount: 2
UndoRedoHistory
Layer: 1
Undoes
EndUndoes
Redoes
EndRedoes
EndUndoRedoHistory
Fore
SplineSet
352 1592 m 1
 560 1592 l 1
 560 1182 l 1
 818 1182 l 1
 818 1017 l 1
 560 1017 l 1
 560 0 l 1
 352 0 l 1
 352 1017 l 1
 91 1017 l 1
 91 1182 l 1
 352 1182 l 1
 352 1592 l 1
EndSplineSet
EndChar

StartChar: daggerdbl
Encoding: 8225 8225 169
Width: 927
VWidth: 0
GlyphClass: 2
Flags: W
HStem: 0 21G<352 560> 503 165<91 352 560 818> 1017 165<91 352 560 818>
VStem: 352 208<0 503 668 1017 1182 1592>
LayerCount: 2
UndoRedoHistory
Layer: 1
Undoes
EndUndoes
Redoes
EndRedoes
EndUndoRedoHistory
Fore
SplineSet
352 1592 m 1
 560 1592 l 1
 560 1182 l 1
 818 1182 l 1
 818 1017 l 1
 560 1017 l 1
 560 668 l 1
 818 668 l 1
 818 503 l 1
 560 503 l 1
 560 0 l 1
 352 0 l 1
 352 503 l 1
 91 503 l 1
 91 668 l 1
 352 668 l 1
 352 1017 l 1
 91 1017 l 1
 91 1182 l 1
 352 1182 l 1
 352 1592 l 1
EndSplineSet
EndChar

StartChar: dblgravecmb
Encoding: 783 783 170
Width: 825
VWidth: 0
GlyphClass: 2
Flags: W
HStem: 1243 536
VStem: 58 641
LayerCount: 2
UndoRedoHistory
Layer: 1
Undoes
EndUndoes
Redoes
EndRedoes
EndUndoRedoHistory
Fore
SplineSet
58 1702 m 1
 210 1779 l 1
 407 1293 l 1
 313 1243 l 1
 58 1702 l 1
381 1700 m 1
 539 1779 l 1
 699 1293 l 1
 605 1243 l 1
 381 1700 l 1
EndSplineSet
EndChar

StartChar: degree
Encoding: 176 176 173
Width: 915
VWidth: 0
GlyphClass: 2
Flags: W
VStem: 104 155<1313.92 1582.12> 657 154<1313.98 1581.83>
LayerCount: 2
UndoRedoHistory
Layer: 1
Undoes
EndUndoes
Redoes
EndRedoes
EndUndoRedoHistory
Fore
SplineSet
104 1448 m 0
 104 1893 811 1893 811 1448 c 0
 811 1004 104 1001 104 1448 c 0
657 1448 m 0
 657 1731 259 1733 259 1448 c 0
 259 1165 657 1163 657 1448 c 0
EndSplineSet
EndChar

StartChar: dieresis
Encoding: 168 168 174
Width: 976
VWidth: 0
GlyphClass: 2
Flags: W
HStem: 418 178<131 361 615 845>
VStem: 131 230<418 596> 615 230<418 596>
LayerCount: 2
UndoRedoHistory
Layer: 1
Undoes
EndUndoes
Redoes
EndRedoes
EndUndoRedoHistory
Fore
SplineSet
615 596 m 1
 845 596 l 1
 845 418 l 1
 615 418 l 1
 615 596 l 1
131 596 m 1
 361 596 l 1
 361 418 l 1
 131 418 l 1
 131 596 l 1
EndSplineSet
EndChar

StartChar: divide
Encoding: 247 247 175
Width: 804
VWidth: 0
GlyphClass: 2
Flags: W
HStem: 197 298<303 501> 671 167<94 710> 1016 298<303 501>
VStem: 303 198<197 495 1016 1314>
LayerCount: 2
UndoRedoHistory
Layer: 1
Undoes
EndUndoes
Redoes
EndRedoes
EndUndoRedoHistory
Fore
SplineSet
94 838 m 1
 710 838 l 1
 710 671 l 1
 94 671 l 1
 94 838 l 1
303 495 m 1
 501 495 l 1
 501 197 l 1
 303 197 l 1
 303 495 l 1
303 1314 m 1
 501 1314 l 1
 501 1016 l 1
 303 1016 l 1
 303 1314 l 1
EndSplineSet
EndChar

StartChar: dollar
Encoding: 36 36 176
Width: 804
VWidth: 0
GlyphClass: 2
Flags: W
HStem: -246 21G<364 474> -10 175<340.209 511.364> 1352 176<319.069 485.9> 1740 20G<349 459>
VStem: 100 199<204.761 537 1003.03 1332.25> 349 110<1485 1760> 364 110<-246 34> 525 195<988 1313.8> 539 206<191.178 524.92>
CounterMasks: 2 f0 0980
LayerCount: 2
UndoRedoHistory
Layer: 1
Undoes
EndUndoes
Redoes
EndRedoes
EndUndoRedoHistory
Fore
SplineSet
364 34 m 1xfa
 474 34 l 1
 474 -246 l 1
 364 -246 l 1
 364 34 l 1xfa
349 1760 m 1xfc
 459 1760 l 1
 459 1485 l 1
 349 1485 l 1
 349 1760 l 1xfc
EndSplineSet
Refer: 307 115 N 1 0 0 1 0 10 2
EndChar

StartChar: dotaccent
Encoding: 729 729 177
Width: 572
VWidth: 0
GlyphClass: 2
Flags: W
HStem: 405 178<184 397>
VStem: 184 213<405 583>
LayerCount: 2
UndoRedoHistory
Layer: 1
Undoes
EndUndoes
Redoes
EndRedoes
EndUndoRedoHistory
Fore
SplineSet
184 583 m 1
 397 583 l 1
 397 405 l 1
 184 405 l 1
 184 583 l 1
EndSplineSet
EndChar

StartChar: dotlessi
Encoding: 305 305 178
Width: 504
VWidth: 0
GlyphClass: 2
Flags: W
HStem: 0 21G<149 355> 1480 20G<149 355>
VStem: 149 206<0 1500>
LayerCount: 2
UndoRedoHistory
Layer: 1
Undoes
EndUndoes
Redoes
EndRedoes
EndUndoRedoHistory
Fore
SplineSet
149 1500 m 1
 355 1500 l 1
 355 0 l 1
 149 0 l 1
 149 1500 l 1
EndSplineSet
EndChar

StartChar: e
Encoding: 101 101 179
Width: 881
VWidth: 0
GlyphClass: 2
Flags: W
HStem: -18 171<366.739 541.792> 743 139<330 573> 1349 169<369.772 544.68>
VStem: 124 206<191.73 743 882 1310.52> 573 205<187.536 562 882 1318.33>
AnchorPoint: "ogonek" 478 0 basechar 0
LayerCount: 2
UndoRedoHistory
Layer: 1
Undoes
EndUndoes
Redoes
EndRedoes
EndUndoRedoHistory
Fore
SplineSet
124 1035 m 2
 124 1317 190 1518 462 1518 c 0
 737 1518 778 1315 778 1026 c 2
 778 743 l 1
 330 743 l 1
 330 444 l 2
 330 254 340 153 456 153 c 0
 569 153 573 265 573 441 c 2
 573 562 l 1
 774 562 l 1
 774 498 l 2
 774 186 747 -18 454 -18 c 0
 167 -18 124 192 124 505 c 2
 124 1035 l 2
573 1073 m 2
 573 1252 567 1349 462 1349 c 0
 343 1349 329 1233 329 1066 c 2
 329 882 l 1
 573 882 l 1
 573 1073 l 2
EndSplineSet
EndChar

StartChar: eight
Encoding: 56 56 187
Width: 854
VWidth: 0
GlyphClass: 2
Flags: W
HStem: -20 174<331.833 526.272> 863 144<361.382 504.636> 1614 165<339.187 528.054>
VStem: 105 198<181.381 795.074 1064.94 1580.72> 556 206<184.542 795.054 1065.58 1590.32>
CounterMasks: 1 e0
LayerCount: 2
UndoRedoHistory
Layer: 1
Undoes
EndUndoes
Redoes
EndRedoes
EndUndoRedoHistory
Fore
SplineSet
105 1344 m 0
 105 1649 187 1779 433 1779 c 0
 680 1779 759 1651 759 1344 c 0
 759 1155 728 1017 624 946 c 1
 715 879 762 682 762 494 c 2
 762 424 l 2
 762 116 668 -20 432 -20 c 0
 197 -20 97 114 93 417 c 2
 92 494 l 2
 90 685 148 878 244 943 c 1
 142 1016 105 1157 105 1344 c 0
556 507 m 2
 556 751 513 863 433 863 c 0
 358 863 299 752 299 504 c 2
 299 435 l 2
 299 228 316 154 433 154 c 0
 549 154 556 227 556 440 c 2
 556 507 l 2
561 1336 m 0
 561 1589 518 1614 431 1614 c 0
 347 1614 303 1577 303 1332 c 0
 303 1067 353 1007 431 1007 c 0
 505 1007 561 1068 561 1336 c 0
EndSplineSet
EndChar

StartChar: emdash
Encoding: 8212 8212 189
Width: 1153
VWidth: 0
GlyphClass: 2
Flags: W
HStem: 570 171<60 1092>
LayerCount: 2
UndoRedoHistory
Layer: 1
Undoes
EndUndoes
Redoes
EndRedoes
EndUndoRedoHistory
Fore
SplineSet
60 741 m 1
 1092 741 l 1
 1092 570 l 1
 60 570 l 1
 60 741 l 1
EndSplineSet
EndChar

StartChar: endash
Encoding: 8211 8211 190
Width: 756
VWidth: 0
GlyphClass: 2
Flags: W
HStem: 550 191<120 636>
VStem: 120 516<550 741>
LayerCount: 2
UndoRedoHistory
Layer: 1
Undoes
EndUndoes
Redoes
EndRedoes
EndUndoRedoHistory
Fore
SplineSet
120 741 m 1
 636 741 l 1
 636 550 l 1
 120 550 l 1
 120 741 l 1
EndSplineSet
EndChar

StartChar: equal
Encoding: 61 61 192
Width: 722
VWidth: 0
GlyphClass: 2
Flags: W
HStem: 576 159<84 668> 892 158<84 668>
VStem: 84 584<576 735 892 1050>
LayerCount: 2
UndoRedoHistory
Layer: 1
Undoes
EndUndoes
Redoes
EndRedoes
EndUndoRedoHistory
Fore
SplineSet
84 735 m 1
 668 735 l 1
 668 576 l 1
 84 576 l 1
 84 735 l 1
84 1050 m 1
 668 1050 l 1
 668 892 l 1
 84 892 l 1
 84 1050 l 1
EndSplineSet
EndChar

StartChar: eth
Encoding: 240 240 193
Width: 968
VWidth: 0
GlyphClass: 2
Flags: W
HStem: -20 178<353.207 563.324> 927 174<361.559 576.487> 1635 144<349 415.44>
VStem: 104 207<200.841 873.558> 616 206<215.608 895.32 1025 1404.19>
LayerCount: 2
UndoRedoHistory
Layer: 1
Undoes
EndUndoes
Redoes
EndRedoes
EndUndoRedoHistory
Fore
SplineSet
282 1635 m 1
 349 1779 l 1
 480 1773 600 1724 683 1620 c 1
 883 1735 l 1
 942 1617 l 1
 753 1507 l 1
 795 1420 822 972 822 909 c 2
 822 516 l 2
 822 194 760 -20 461 -20 c 0
 183 -20 104 148 104 462 c 2
 104 571 l 2
 104 947 187 1109 438 1101 c 0
 506 1099 572 1073 612 1025 c 1
 612 1041 598 1351 575 1407 c 1
 358 1281 l 1
 299 1399 l 1
 507 1520 l 1
 442 1595 354 1626 282 1635 c 1
616 854 m 1
 602 882 539 927 454 927 c 0
 338 927 311 836 311 578 c 2
 311 440 l 2
 311 215 344 158 460 158 c 0
 585 158 616 255 616 481 c 2
 616 854 l 1
EndSplineSet
EndChar

StartChar: exclam
Encoding: 33 33 194
Width: 528
VWidth: 0
GlyphClass: 2
Flags: W
HStem: 0 228<151 373> 1740 20G<146 381>
VStem: 151 222<0 228> 222 84<395 652.482>
LayerCount: 2
UndoRedoHistory
Layer: 1
Undoes
EndUndoes
Redoes
EndRedoes
EndUndoRedoHistory
Fore
SplineSet
146 1760 m 1xd0
 381 1760 l 1
 306 395 l 1
 222 395 l 1
 146 1760 l 1xd0
151 228 m 1xe0
 373 228 l 1
 373 0 l 1
 151 0 l 1
 151 228 l 1xe0
EndSplineSet
EndChar

StartChar: f
Encoding: 102 102 196
Width: 651
VWidth: 0
GlyphClass: 2
Flags: W
HStem: 0 21G<202 407> 1291 151<73 202 407 583> 1628 158<417.831 582.207>
VStem: 202 205<0 1291 1442 1617.52>
LayerCount: 2
UndoRedoHistory
Layer: 1
Undoes
EndUndoes
Redoes
EndRedoes
EndUndoRedoHistory
Fore
SplineSet
202 1515 m 2
 202 1688 273 1786 434 1786 c 0
 513 1786 577 1767 583 1765 c 1
 583 1622 l 1
 556 1626 532 1628 512 1628 c 0
 422 1628 407 1588 407 1523 c 2
 407 1442 l 1
 583 1442 l 1
 583 1291 l 1
 407 1291 l 1
 407 0 l 1
 202 0 l 1
 202 1291 l 1
 73 1291 l 1
 73 1442 l 1
 202 1442 l 1
 202 1515 l 2
EndSplineSet
EndChar

StartChar: five
Encoding: 53 53 197
Width: 854
VWidth: 0
GlyphClass: 2
Flags: W
HStem: -20 174<367.897 527.698> 1058 175<372.202 528.863> 1574 186<350 714>
VStem: 143 200<178.397 510> 161 189<887 1038.59 1163 1574> 557 199<180.522 1032.69>
CounterMasks: 1 e0
LayerCount: 2
UndoRedoHistory
Layer: 1
Undoes
EndUndoes
Redoes
EndRedoes
EndUndoRedoHistory
Fore
SplineSet
161 1760 m 1xec
 714 1760 l 1
 714 1574 l 1
 350 1574 l 1
 350 1163 l 1xec
 372 1206 438 1233 503 1233 c 0
 677 1233 756 1116 756 668 c 0
 756 168 735 -20 450 -20 c 0
 216 -20 143 132 143 316 c 2
 143 510 l 1
 343 510 l 1
 343 315 l 2xf4
 343 223 365 154 450 154 c 0
 526 154 557 210 557 326 c 2
 557 851 l 2
 557 985 535 1058 452 1058 c 0
 385 1058 339 999 339 871 c 1
 161 887 l 1
 161 1760 l 1xec
EndSplineSet
EndChar

StartChar: florin
Encoding: 402 402 198
Width: 767
VWidth: 0
GlyphClass: 2
Flags: W
HStem: -15 169<116.732 343.872> 1102 153<107 286 480 662> 1622 163<417 649.684>
VStem: 286 194<166.357 1102 1255 1616.3>
LayerCount: 2
UndoRedoHistory
Layer: 1
Undoes
EndUndoes
Redoes
EndRedoes
EndUndoRedoHistory
Fore
SplineSet
286 1539 m 2
 286 1703 351 1785 483 1785 c 0
 536 1785 593 1774 652 1752 c 1
 652 1603 l 1
 612 1615 581 1622 557 1622 c 0
 498 1622 480 1584 480 1503 c 2
 480 1255 l 1
 662 1255 l 1
 662 1102 l 1
 480 1102 l 1
 480 221 l 2
 480 66 415 -15 270 -15 c 0
 220 -15 169 -7 115 8 c 1
 115 157 l 1
 135 156 152 154 167 154 c 0
 272 154 286 187 286 305 c 2
 286 1102 l 1
 107 1102 l 1
 107 1255 l 1
 286 1255 l 1
 286 1539 l 2
EndSplineSet
EndChar

StartChar: four
Encoding: 52 52 199
Width: 854
VWidth: 0
GlyphClass: 2
Flags: W
HStem: 0 21G<497 685> 332 164<251 497 685 830> 1740 20G<465.905 685>
VStem: 497 188<0 332 496 1412>
LayerCount: 2
UndoRedoHistory
Layer: 1
Undoes
EndUndoes
Redoes
EndRedoes
EndUndoRedoHistory
Fore
SplineSet
472 1760 m 1
 685 1760 l 1
 685 496 l 1
 830 496 l 1
 830 332 l 1
 685 332 l 1
 685 0 l 1
 497 0 l 1
 497 332 l 1
 81 332 l 1
 81 477 l 1
 472 1760 l 1
497 496 m 1
 497 1412 l 1
 251 496 l 1
 497 496 l 1
EndSplineSet
EndChar

StartChar: fraction
Encoding: 8260 8260 200
Width: 829
VWidth: 0
GlyphClass: 2
Flags: W
HStem: 0 21G<76 258.158> 1748 20G<525.853 709>
VStem: 76 633
LayerCount: 2
UndoRedoHistory
Layer: 1
Undoes
EndUndoes
Redoes
EndRedoes
EndUndoRedoHistory
Fore
SplineSet
531 1768 m 1
 709 1768 l 1
 253 0 l 1
 76 0 l 1
 531 1768 l 1
EndSplineSet
EndChar

StartChar: g
Encoding: 103 103 201
Width: 929
VWidth: 0
GlyphClass: 2
Flags: W
HStem: -229 162<245.543 528.694> 140 163<375.171 530.332> 1347 171<366.885 531.54> 1480 20G<583 788>
VStem: 122 206<351.536 1311.08> 583 205<-19.9866 264 333.691 1309.97 1390 1500>
LayerCount: 2
UndoRedoHistory
Layer: 1
Undoes
EndUndoes
Redoes
EndRedoes
EndUndoRedoHistory
Fore
SplineSet
122 1038 m 2xdc
 122 1312 193 1521 405 1518 c 0xec
 490 1517 555 1477 583 1390 c 1
 583 1500 l 1
 788 1500 l 1
 788 140 l 2
 788 -32 720 -220 446 -229 c 0
 309 -233 198 -196 119 -133 c 1
 193 7 l 1
 252 -33 331 -70 436 -67 c 0
 529 -65 583 7 583 121 c 2
 583 264 l 1
 544 165 474 140 387 140 c 0
 176 140 122 340 122 608 c 2
 122 1038 l 2xdc
583 1068 m 2
 583 1250 560 1347 456 1347 c 0
 341 1347 328 1233 328 1070 c 2
 328 603 l 2
 328 404 354 303 466 303 c 0
 546 303 583 359 583 605 c 2
 583 1068 l 2
EndSplineSet
EndChar

StartChar: germandbls
Encoding: 223 223 206
Width: 981
VWidth: 0
GlyphClass: 2
Flags: W
HStem: 0 168<450 643.294> 851 168<459 600.458> 1627 152<375.277 606.553>
VStem: 144 204<0 1600.77> 631 200<1048.92 1599.1> 689 202<213.138 802.189>
LayerCount: 2
UndoRedoHistory
Layer: 1
Undoes
EndUndoes
Redoes
EndRedoes
EndUndoRedoHistory
Fore
SplineSet
144 1417 m 2xf8
 144 1660 191 1779 474 1779 c 0
 740 1779 831 1694 831 1417 c 2
 831 1220 l 2xf8
 831 1056 792 986 668 945 c 1
 840 904 891 801 891 553 c 2
 891 476 l 2
 891 177 854 0 554 0 c 2
 450 0 l 1
 450 168 l 1
 653 168 689 199 689 395 c 2
 689 656 l 2xf4
 689 806 636 851 459 851 c 1
 459 1019 l 1
 589 1019 631 1058 631 1170 c 2
 631 1470 l 2
 631 1590 596 1627 484 1627 c 0
 387 1627 348 1590 348 1470 c 2
 348 0 l 1
 144 0 l 1
 144 1417 l 2xf8
EndSplineSet
EndChar

StartChar: grave
Encoding: 96 96 207
Width: 650
VWidth: 0
GlyphClass: 2
Flags: W
HStem: 1389 371<348 365>
VStem: 154 305
LayerCount: 2
UndoRedoHistory
Layer: 1
Undoes
EndUndoes
Redoes
EndRedoes
EndUndoRedoHistory
Fore
SplineSet
365 1760 m 1
 459 1389 l 1
 348 1389 l 1
 154 1760 l 1
 365 1760 l 1
EndSplineSet
EndChar

StartChar: greater
Encoding: 62 62 208
Width: 730
VWidth: 0
GlyphClass: 2
Flags: W
VStem: 87 576
LayerCount: 2
UndoRedoHistory
Layer: 1
Undoes
EndUndoes
Redoes
EndRedoes
EndUndoRedoHistory
Fore
SplineSet
87 1027 m 1
 87 1241 l 1
 663 857 l 1
 663 646 l 1
 87 264 l 1
 87 484 l 1
 520 749 l 1
 87 1027 l 1
EndSplineSet
EndChar

StartChar: greaterequal
Encoding: 8805 8805 209
Width: 781
VWidth: 0
GlyphClass: 2
Flags: W
HStem: 0 144<105 645>
VStem: 103 577
LayerCount: 2
UndoRedoHistory
Layer: 1
Undoes
EndUndoes
Redoes
EndRedoes
EndUndoRedoHistory
Fore
SplineSet
103 1039 m 1
 103 1259 l 1
 680 878 l 1
 680 667 l 1
 103 282 l 1
 103 496 l 1
 536 774 l 1
 103 1039 l 1
105 144 m 1
 645 144 l 1
 645 0 l 1
 105 0 l 1
 105 144 l 1
EndSplineSet
EndChar

StartChar: guillemotleft
Encoding: 171 171 210
Width: 1304
VWidth: 0
GlyphClass: 2
Flags: W
LayerCount: 2
UndoRedoHistory
Layer: 1
Undoes
EndUndoes
Redoes
EndRedoes
EndUndoRedoHistory
Fore
SplineSet
620 839 m 1
 1098 1110 l 1
 1098 903 l 1
 786 749 l 1
 1098 586 l 1
 1098 372 l 1
 620 657 l 1
 620 839 l 1
82 839 m 1
 560 1110 l 1
 560 903 l 1
 248 749 l 1
 560 586 l 1
 560 372 l 1
 82 657 l 1
 82 839 l 1
EndSplineSet
EndChar

StartChar: guillemotright
Encoding: 187 187 211
Width: 1304
VWidth: 0
GlyphClass: 2
Flags: W
LayerCount: 2
UndoRedoHistory
Layer: 1
Undoes
EndUndoes
Redoes
EndRedoes
EndUndoRedoHistory
Fore
SplineSet
710 903 m 1
 710 1110 l 1
 1188 839 l 1
 1188 657 l 1
 710 372 l 1
 710 586 l 1
 1022 749 l 1
 710 903 l 1
172 903 m 1
 172 1110 l 1
 650 839 l 1
 650 657 l 1
 172 372 l 1
 172 586 l 1
 484 749 l 1
 172 903 l 1
EndSplineSet
EndChar

StartChar: guilsinglleft
Encoding: 8249 8249 212
Width: 606
VWidth: 0
GlyphClass: 2
Flags: W
VStem: 70 478
LayerCount: 2
UndoRedoHistory
Layer: 1
Undoes
EndUndoes
Redoes
EndRedoes
EndUndoRedoHistory
Fore
SplineSet
70 839 m 1
 548 1110 l 1
 548 903 l 1
 236 749 l 1
 548 586 l 1
 548 372 l 1
 70 657 l 1
 70 839 l 1
EndSplineSet
EndChar

StartChar: guilsinglright
Encoding: 8250 8250 213
Width: 727
VWidth: 0
GlyphClass: 2
Flags: W
VStem: 153 478
LayerCount: 2
UndoRedoHistory
Layer: 1
Undoes
EndUndoes
Redoes
EndRedoes
EndUndoRedoHistory
Fore
SplineSet
153 903 m 1
 153 1110 l 1
 631 839 l 1
 631 657 l 1
 153 372 l 1
 153 586 l 1
 465 749 l 1
 153 903 l 1
EndSplineSet
EndChar

StartChar: h
Encoding: 104 104 214
Width: 969
VWidth: 0
GlyphClass: 2
Flags: W
HStem: 0 21G<145 350 625 830> 1342 177<448.505 596.519> 1759 20G<145 350>
VStem: 145 205<0 1297.12 1341 1779> 625 205<0 1314.54>
LayerCount: 2
UndoRedoHistory
Layer: 1
Undoes
EndUndoes
Redoes
EndRedoes
EndUndoRedoHistory
Fore
SplineSet
145 1779 m 1
 350 1779 l 1
 350 1341 l 1
 376 1434 469 1519 589 1519 c 0
 739 1519 830 1413 830 1196 c 2
 830 0 l 1
 625 0 l 1
 625 1179 l 2
 625 1301 576 1342 502 1342 c 0
 419 1342 350 1285 350 1154 c 2
 350 0 l 1
 145 0 l 1
 145 1779 l 1
EndSplineSet
EndChar

StartChar: hbar
Encoding: 295 295 215
Width: 969
VWidth: 0
GlyphClass: 2
Flags: W
HStem: 0 21<145 350 625 830> 1342 177<448.505 596.519> 1576 116<0 561> 1759 20<145 350>
VStem: 145 205<0 1297.12 1341 1779> 625 205<0 1314.54>
LayerCount: 2
UndoRedoHistory
Layer: 1
Undoes
EndUndoes
Redoes
EndRedoes
EndUndoRedoHistory
Fore
SplineSet
0 1692 m 1
 561 1692 l 1
 561 1576 l 1
 0 1576 l 1
 0 1692 l 1
EndSplineSet
Refer: 214 104 N 1 0 0 1 0 0 2
EndChar

StartChar: hungarumlaut
Encoding: 733 733 217
Width: 1170
VWidth: 0
GlyphClass: 2
Flags: W
HStem: 459 561
VStem: 276 665
LayerCount: 2
UndoRedoHistory
Layer: 1
Undoes
EndUndoes
Redoes
EndRedoes
EndUndoRedoHistory
Fore
SplineSet
568 505 m 1
 753 1020 l 1
 941 925 l 1
 657 459 l 1
 568 505 l 1
276 505 m 1
 404 1020 l 1
 589 933 l 1
 366 467 l 1
 276 505 l 1
EndSplineSet
EndChar

StartChar: hyphen
Encoding: 45 45 218
Width: 696
VWidth: 0
GlyphClass: 2
Flags: W
HStem: 763 145<88 540>
VStem: 88 452<763 908>
LayerCount: 2
UndoRedoHistory
Layer: 1
Undoes
EndUndoes
Redoes
EndRedoes
EndUndoRedoHistory
Fore
SplineSet
88 908 m 1
 540 908 l 1
 540 763 l 1
 88 763 l 1
 88 908 l 1
EndSplineSet
EndChar

StartChar: i
Encoding: 105 105 219
Width: 494
VWidth: 0
GlyphClass: 2
Flags: W
HStem: 0 21G<144 349> 1480 20G<144 349> 1638 188<144 350>
VStem: 144 205<0 1500 1638 1826>
AnchorPoint: "ogonek" 246 0 basechar 0
LayerCount: 2
UndoRedoHistory
Layer: 1
Undoes
EndUndoes
Redoes
EndRedoes
EndUndoRedoHistory
Fore
SplineSet
144 1500 m 1
 349 1500 l 1
 349 0 l 1
 144 0 l 1
 144 1500 l 1
144 1826 m 1
 350 1826 l 1
 350 1638 l 1
 144 1638 l 1
 144 1826 l 1
EndSplineSet
EndChar

StartChar: infinity
Encoding: 8734 8734 227
Width: 1300
VWidth: 0
GlyphClass: 2
Flags: W
HStem: 452 142<291.161 494.106 782.363 999.401> 884 144<291.161 494.852 784.191 999.401>
VStem: 108 153<622.693 855.425> 1031 151<624.516 854.424>
LayerCount: 2
UndoRedoHistory
Layer: 1
Undoes
EndUndoes
Redoes
EndRedoes
EndUndoRedoHistory
Fore
SplineSet
639 885 m 1
 715 979 824 1041 912 1041 c 0
 1074 1041 1182 922 1182 744 c 0
 1182 561 1074 439 912 439 c 0
 817 439 708 497 639 585 c 1
 568 505 460 452 370 452 c 0
 213 452 108 569 108 744 c 0
 108 914 213 1028 370 1028 c 0
 454 1028 562 971 639 885 c 1
588 740 m 1
 534 826 449 884 374 884 c 0
 306 884 261 826 261 740 c 0
 261 652 306 594 374 594 c 0
 447 594 532 652 588 740 c 1
1031 740 m 0
 1031 828 983 886 910 886 c 0
 834 886 744 828 686 740 c 1
 740 652 830 594 910 594 c 0
 983 594 1031 652 1031 740 c 0
EndSplineSet
EndChar

StartChar: integral
Encoding: 8747 8747 228
Width: 767
VWidth: 0
GlyphClass: 2
Flags: W
HStem: -15 169<116.732 343.872> 1622 163<417 649.684>
VStem: 286 194<166.357 1616.3>
LayerCount: 2
UndoRedoHistory
Layer: 1
Undoes
EndUndoes
Redoes
EndRedoes
EndUndoRedoHistory
Fore
SplineSet
286 1539 m 2
 286 1703 351 1785 483 1785 c 0
 536 1785 593 1774 652 1752 c 1
 652 1603 l 1
 612 1615 581 1622 557 1622 c 0
 498 1622 480 1584 480 1503 c 2
 480 221 l 2
 480 66 415 -15 270 -15 c 0
 220 -15 169 -7 115 8 c 1
 115 157 l 1
 135 156 152 154 167 154 c 0
 272 154 286 187 286 305 c 2
 286 1539 l 2
EndSplineSet
EndChar

StartChar: j
Encoding: 106 106 231
Width: 520
VWidth: 0
GlyphClass: 2
Flags: W
HStem: -200 144<62 168.496> 1480 20G<170 375> 1638 188<168 374>
VStem: 170 205<-51.8425 1500 1638 1826>
LayerCount: 2
UndoRedoHistory
Layer: 1
Undoes
EndUndoes
Redoes
EndRedoes
EndUndoRedoHistory
Fore
SplineSet
170 1500 m 1
 375 1500 l 1
 375 20 l 2
 375 -151 288 -205 209 -209 c 1
 136 -215 67 -203 62 -200 c 1
 62 -56 l 1
 64 -56 97 -59 120 -57 c 0
 159 -53 170 -27 170 10 c 2
 170 1500 l 1
168 1826 m 1
 374 1826 l 1
 374 1638 l 1
 168 1638 l 1
 168 1826 l 1
EndSplineSet
EndChar

StartChar: k
Encoding: 107 107 233
Width: 896
VWidth: 0
GlyphClass: 2
Flags: W
HStem: 0 21G<149 354 653.562 873> 1480 20G<640.725 856> 1759 20G<149 354>
VStem: 149 205<0 730 787 1779>
LayerCount: 2
UndoRedoHistory
Layer: 1
Undoes
EndUndoes
Redoes
EndRedoes
EndUndoRedoHistory
Fore
SplineSet
149 1779 m 1
 354 1779 l 1
 354 787 l 1
 649 1500 l 1
 856 1500 l 1
 540 759 l 1
 873 0 l 1
 662 0 l 1
 354 730 l 1
 354 0 l 1
 149 0 l 1
 149 1779 l 1
EndSplineSet
EndChar

StartChar: kgreenlandic
Encoding: 312 312 235
Width: 866
VWidth: 0
GlyphClass: 2
Flags: W
HStem: 0 21G<147 352 651.562 871> 1480 20G<147 352 638.725 854>
VStem: 147 205<0 730 787 1500>
LayerCount: 2
UndoRedoHistory
Layer: 1
Undoes
EndUndoes
Redoes
EndRedoes
EndUndoRedoHistory
Fore
SplineSet
147 1500 m 1
 352 1500 l 1
 352 787 l 1
 647 1500 l 1
 854 1500 l 1
 538 759 l 1
 871 0 l 1
 660 0 l 1
 352 730 l 1
 352 0 l 1
 147 0 l 1
 147 1500 l 1
EndSplineSet
EndChar

StartChar: l
Encoding: 108 108 236
Width: 504
VWidth: 0
GlyphClass: 2
Flags: W
HStem: 0 21G<147 352> 1759 20G<147 352>
VStem: 147 205<0 1779>
LayerCount: 2
UndoRedoHistory
Layer: 1
Undoes
EndUndoes
Redoes
EndRedoes
EndUndoRedoHistory
Fore
SplineSet
147 1779 m 1
 352 1779 l 1
 352 0 l 1
 147 0 l 1
 147 1779 l 1
EndSplineSet
EndChar

StartChar: less
Encoding: 60 60 241
Width: 730
VWidth: 0
GlyphClass: 2
Flags: W
VStem: 64 576
LayerCount: 2
UndoRedoHistory
Layer: 1
Undoes
EndUndoes
Redoes
EndRedoes
EndUndoRedoHistory
Fore
SplineSet
64 860 m 1
 640 1241 l 1
 640 1021 l 1
 207 755 l 1
 640 478 l 1
 640 264 l 1
 64 649 l 1
 64 860 l 1
EndSplineSet
EndChar

StartChar: lessequal
Encoding: 8804 8804 242
Width: 781
VWidth: 0
GlyphClass: 2
Flags: W
HStem: 0 144<102 642>
VStem: 70 577
LayerCount: 2
UndoRedoHistory
Layer: 1
Undoes
EndUndoes
Redoes
EndRedoes
EndUndoRedoHistory
Fore
SplineSet
70 878 m 1
 647 1259 l 1
 647 1039 l 1
 213 774 l 1
 647 496 l 1
 647 282 l 1
 70 667 l 1
 70 878 l 1
102 144 m 1
 642 144 l 1
 642 0 l 1
 102 0 l 1
 102 144 l 1
EndSplineSet
EndChar

StartChar: logicalnot
Encoding: 172 172 243
Width: 947
VWidth: 0
GlyphClass: 2
Flags: W
HStem: 796 183<97 602>
VStem: 602 191<439 796>
LayerCount: 2
UndoRedoHistory
Layer: 1
Undoes
EndUndoes
Redoes
EndRedoes
EndUndoRedoHistory
Fore
SplineSet
97 979 m 1
 793 979 l 1
 793 439 l 1
 602 439 l 1
 602 796 l 1
 97 796 l 1
 97 979 l 1
EndSplineSet
EndChar

StartChar: lozenge
Encoding: 9674 9674 244
Width: 921
VWidth: 0
GlyphClass: 2
Flags: W
HStem: 0 21G<321.27 593.866> 1740 20G<321.23 593.906>
LayerCount: 2
UndoRedoHistory
Layer: 1
Undoes
EndUndoes
Redoes
EndRedoes
EndUndoRedoHistory
Fore
SplineSet
327 1760 m 1
 588 1760 l 1
 847 883 l 1
 588 0 l 1
 327 0 l 1
 74 883 l 1
 327 1760 l 1
649 883 m 1
 475 1571 l 1
 443 1571 l 1
 269 883 l 1
 443 179 l 1
 475 179 l 1
 649 883 l 1
EndSplineSet
EndChar

StartChar: lslash
Encoding: 322 322 245
Width: 691
VWidth: 0
GlyphClass: 2
Flags: W
HStem: 0 21<215 420> 1759 20<215 420>
VStem: 75 526 215 205<0 1779>
LayerCount: 2
UndoRedoHistory
Layer: 1
Undoes
EndUndoes
Redoes
EndRedoes
EndUndoRedoHistory
Fore
SplineSet
75 921 m 1xe0
 601 1153 l 1
 601 986 l 1
 75 754 l 1
 75 921 l 1xe0
EndSplineSet
Refer: 236 108 N 1 0 0 1 68 0 2
EndChar

StartChar: m
Encoding: 109 109 246
Width: 1430
VWidth: 0
GlyphClass: 2
Flags: W
HStem: 0 21G<143 348 614 820 1086 1291> 1342 177<439.343 587.557 891.39 1057.92> 1480 20G<143 348>
VStem: 143 205<0 1302.91 1344 1500> 614 206<0 1310.69> 1086 205<0 1313.6>
CounterMasks: 1 1c
LayerCount: 2
UndoRedoHistory
Layer: 1
Undoes
EndUndoes
Redoes
EndRedoes
EndUndoRedoHistory
Fore
SplineSet
348 1344 m 1xbc
 375 1439 458 1519 582 1519 c 0
 680 1519 756 1473 794 1367 c 1
 843 1458 932 1519 1048 1519 c 0
 1207 1519 1291 1405 1291 1184 c 2
 1291 0 l 1
 1086 0 l 1
 1086 1190 l 2
 1086 1303 1038 1342 966 1342 c 0
 889 1342 828 1311 820 1203 c 1
 820 1184 l 1
 820 0 l 1
 614 0 l 1
 614 1191 l 2
 614 1297 571 1342 496 1342 c 0xdc
 398 1342 348 1274 348 1168 c 2
 348 0 l 1
 143 0 l 1
 143 1500 l 1
 348 1500 l 1
 348 1344 l 1xbc
EndSplineSet
EndChar

StartChar: macron
Encoding: 175 175 247
Width: 696
VWidth: 0
GlyphClass: 2
Flags: W
HStem: 412 132<90 591>
VStem: 90 501<412 544>
LayerCount: 2
UndoRedoHistory
Layer: 1
Undoes
EndUndoes
Redoes
EndRedoes
EndUndoRedoHistory
Fore
SplineSet
90 544 m 1
 591 544 l 1
 591 412 l 1
 90 412 l 1
 90 544 l 1
EndSplineSet
EndChar

StartChar: minus
Encoding: 8722 8722 248
Width: 637
VWidth: 0
GlyphClass: 2
Flags: W
HStem: 509 232<60 576>
VStem: 60 516<509 741>
LayerCount: 2
UndoRedoHistory
Layer: 1
Undoes
EndUndoes
Redoes
EndRedoes
EndUndoRedoHistory
Fore
SplineSet
60 741 m 1
 576 741 l 1
 576 509 l 1
 60 509 l 1
 60 741 l 1
EndSplineSet
EndChar

StartChar: mu
Encoding: 956 956 249
Width: 971
VWidth: 0
GlyphClass: 2
Flags: W
HStem: -20 178<373.402 526.971> 0 21G<616 822> 1480 20G<137 342 616 822>
VStem: 137 205<-186 -15 187.8 1500> 616 206<0 153 198.112 1500>
LayerCount: 2
UndoRedoHistory
Layer: 1
Undoes
EndUndoes
Redoes
EndRedoes
EndUndoRedoHistory
Fore
SplineSet
616 1500 m 1xb8
 822 1500 l 1
 822 0 l 1
 616 0 l 1x78
 616 153 l 1
 586 59 510 -20 388 -20 c 0
 371 -20 354 -19 338 -15 c 1
 338 -186 l 1
 137 -186 l 1
 137 1500 l 1
 342 1500 l 1
 342 335 l 2
 342 219 382 158 471 158 c 0
 570 158 616 235 616 340 c 2
 616 1500 l 1xb8
EndSplineSet
EndChar

StartChar: multiply
Encoding: 215 215 250
Width: 710
VWidth: 0
GlyphClass: 2
Flags: W
HStem: 374 562
VStem: 76 558
LayerCount: 2
UndoRedoHistory
Layer: 1
Undoes
EndUndoes
Redoes
EndRedoes
EndUndoRedoHistory
Fore
SplineSet
534 936 m 1
 634 832 l 1
 458 655 l 1
 634 478 l 1
 534 374 l 1
 355 552 l 1
 176 374 l 1
 76 478 l 1
 252 655 l 1
 76 832 l 1
 176 936 l 1
 355 758 l 1
 534 936 l 1
EndSplineSet
EndChar

StartChar: n
Encoding: 110 110 251
Width: 968
VWidth: 0
GlyphClass: 2
Flags: W
HStem: 0 21G<143 348 624 829> 1347 172<448.881 666.951> 1480 20G<143 348>
VStem: 143 205<0 1306 1341 1500> 624 205<0 1314.54>
LayerCount: 2
UndoRedoHistory
Layer: 1
Undoes
EndUndoes
Redoes
EndRedoes
EndUndoRedoHistory
Fore
SplineSet
348 1341 m 1xb8
 374 1434 469 1519 590 1519 c 0
 740 1519 829 1413 829 1196 c 2
 829 0 l 1
 624 0 l 1
 624 1195 l 2
 624 1301 570 1347 496 1347 c 0xd8
 413 1347 348 1295 348 1175 c 2
 348 0 l 1
 143 0 l 1
 143 1500 l 1
 348 1500 l 1
 348 1341 l 1xb8
EndSplineSet
EndChar

StartChar: nine
Encoding: 57 57 255
Width: 854
VWidth: 0
GlyphClass: 2
Flags: W
HStem: -21 175<342.182 526.675> 662 164<327.168 543.161> 1601 178<329.659 515.428>
VStem: 103 187<860.486 1566.4> 129 184<178.402 512> 555 198<185.445 715 848.399 1558.2>
CounterMasks: 1 e0
LayerCount: 2
UndoRedoHistory
Layer: 1
Undoes
EndUndoes
Redoes
EndRedoes
EndUndoRedoHistory
Fore
SplineSet
103 1251 m 2xf4
 103 1565 134 1779 417 1779 c 0
 706 1779 753 1586 753 1264 c 2
 753 524 l 2
 753 146 690 -21 427 -21 c 0
 208 -21 129 99 129 429 c 2
 129 512 l 1
 313 512 l 1
 313 459 l 2xec
 313 187 336 154 443 154 c 0
 558 154 555 261 555 510 c 2
 555 715 l 1
 521 687 460 662 392 662 c 0
 148 662 103 842 103 1193 c 2
 103 1251 l 2xf4
555 1298 m 2
 555 1513 534 1601 425 1601 c 0
 309 1601 290 1521 290 1307 c 2
 290 1176 l 2xf4
 290 918 301 826 417 826 c 0
 488 826 555 873 555 873 c 1
 555 1298 l 2
EndSplineSet
EndChar

StartChar: numbersign
Encoding: 35 35 258
Width: 854
VWidth: 0
GlyphClass: 2
Flags: W
HStem: 0 21G<107 247.716 413 553.78> 626 91<38 193 340 498 649 827> 1079 91<74 255 405 561 713 863> 1740 20G<348.186 489 654.119 795>
CounterMasks: 1 e0
LayerCount: 2
UndoRedoHistory
Layer: 1
Undoes
EndUndoes
Redoes
EndRedoes
EndUndoRedoHistory
Fore
SplineSet
657 1760 m 1
 795 1760 l 1
 713 1170 l 1
 863 1170 l 1
 863 1079 l 1
 700 1079 l 1
 649 717 l 1
 827 717 l 1
 827 626 l 1
 638 626 l 1
 551 0 l 1
 413 0 l 1
 498 626 l 1
 330 626 l 1
 245 0 l 1
 107 0 l 1
 193 626 l 1
 38 626 l 1
 38 717 l 1
 204 717 l 1
 255 1079 l 1
 74 1079 l 1
 74 1170 l 1
 268 1170 l 1
 351 1760 l 1
 489 1760 l 1
 405 1170 l 1
 572 1170 l 1
 657 1760 l 1
511 716 m 1
 561 1075 l 1
 392 1075 l 1
 340 716 l 1
 511 716 l 1
EndSplineSet
EndChar

StartChar: o
Encoding: 111 111 259
Width: 914
VWidth: 0
GlyphClass: 2
Flags: W
HStem: -18 171<372.596 543.681> 1347 171<372.793 543.1>
VStem: 124 206<196.697 1306.28> 584 206<198.895 1306.72>
AnchorPoint: "ogonek" 471 0 basechar 0
LayerCount: 2
UndoRedoHistory
Layer: 1
Undoes
EndUndoes
Redoes
EndRedoes
EndUndoRedoHistory
Fore
SplineSet
124 1027 m 2
 124 1309 187 1518 459 1518 c 0
 732 1518 790 1310 790 1027 c 2
 790 496 l 2
 790 190 744 -18 459 -18 c 0
 176 -18 124 185 124 496 c 2
 124 1027 l 2
584 1068 m 2
 584 1235 565 1347 459 1347 c 0
 346 1347 330 1235 330 1068 c 2
 330 439 l 2
 330 268 346 153 459 153 c 0
 566 153 584 268 584 439 c 2
 584 1068 l 2
EndSplineSet
EndChar

StartChar: oe
Encoding: 339 339 264
Width: 1358
VWidth: 0
GlyphClass: 2
Flags: W
HStem: -18 171<375.251 546.552 830.369 999.705> 740 149<795 1038> 1347 171<375.426 548.315 835.3 1010.72>
VStem: 124 207<197.381 1306.28> 588 206<191.576 740 889 1309.15> 1038 202<190.181 562 889 1326.32>
LayerCount: 2
UndoRedoHistory
Layer: 1
Undoes
EndUndoes
Redoes
EndRedoes
EndUndoRedoHistory
Fore
SplineSet
693 1403 m 1
 744 1472 819 1518 927 1518 c 0
 1201 1518 1243 1315 1243 1026 c 1
 1243 1026 1243 750 1242 740 c 1
 794 740 l 1
 794 444 l 2
 794 254 804 153 921 153 c 0
 1033 153 1038 276 1038 451 c 0
 1038 463 1038 561 1037 562 c 1
 1240 562 l 1
 1240 502 l 2
 1240 190 1211 -18 919 -18 c 0
 810 -18 738 27 689 96 c 1
 639 28 566 -18 462 -18 c 0
 179 -18 124 186 124 497 c 2
 124 1027 l 2
 124 1309 190 1518 462 1518 c 0
 568 1518 642 1472 693 1403 c 1
588 1068 m 2
 588 1235 568 1347 462 1347 c 0
 349 1347 331 1235 331 1068 c 2
 331 439 l 2
 331 268 349 153 462 153 c 0
 569 153 588 268 588 439 c 2
 588 1068 l 2
1038 1073 m 2
 1038 1252 1033 1349 927 1349 c 0
 808 1349 795 1228 795 1061 c 2
 795 889 l 1
 1038 889 l 1
 1038 1073 l 2
EndSplineSet
EndChar

StartChar: ogonek
Encoding: 731 731 265
Width: 711
VWidth: 0
GlyphClass: 2
Flags: W
HStem: -626 130<258.25 507.282> -20 20G<253.5 427>
VStem: 69 158<-465.981 -229.727>
AnchorPoint: "ogonek" 379 0 mark 0
LayerCount: 2
UndoRedoHistory
Layer: 1
Undoes
EndUndoes
Redoes
EndRedoes
EndUndoRedoHistory
Fore
SplineSet
342 0 m 1
 427 0 l 1
 308 -117 227 -259 227 -365 c 0
 227 -447 278 -496 376 -496 c 0
 445 -496 502 -478 508 -476 c 1
 508 -591 l 1
 485 -604 407 -626 339 -626 c 0
 157 -626 69 -529 69 -396 c 0
 69 -262 165 -100 342 0 c 1
EndSplineSet
EndChar

StartChar: one
Encoding: 49 49 269
Width: 854
VWidth: 0
GlyphClass: 2
Flags: W
HStem: 0 21G<393 599> 1377 164<125 266.552> 1740 20G<425 599>
VStem: 393 206<0 1483> 453 146<1692.06 1760>
LayerCount: 2
UndoRedoHistory
Layer: 1
Undoes
EndUndoes
Redoes
EndRedoes
EndUndoRedoHistory
Fore
SplineSet
453 1760 m 1xe8
 599 1760 l 1xe8
 599 0 l 1
 393 0 l 1
 393 1483 l 1xf0
 345 1426 199 1377 125 1377 c 1
 125 1541 l 1
 231 1556 397 1628 453 1760 c 1xe8
EndSplineSet
EndChar

StartChar: onehalf
Encoding: 189 189 270
Width: 1620
VWidth: 0
GlyphClass: 2
Flags: W
HStem: 0 108<1245 1522> 1141 122<1258.29 1376.62> 1508 96<95 206.392> 1740 20G<280 397 950.557 1089>
VStem: 250 147<514 1565> 297 100<1688.52 1760> 1092 143<108 216.817 756 1127.58> 1399 139<692.778 1129.7>
CounterMasks: 1 0b
LayerCount: 2
UndoRedoHistory
Layer: 1
Undoes
EndUndoes
Redoes
EndRedoes
EndUndoRedoHistory
Fore
SplineSet
1092 833 m 2xf3
 1092 1104 1111 1263 1332 1263 c 0
 1499 1263 1538 1088 1538 918 c 0
 1538 584 1295 415 1245 108 c 1
 1522 108 l 1
 1522 0 l 1
 1096 0 l 1
 1096 65 l 2
 1096 183 1319 642 1346 674 c 1
 1378 733 1399 842 1399 929 c 0
 1399 1107 1365 1141 1319 1141 c 0
 1273 1141 1235 1108 1235 919 c 2
 1235 756 l 1
 1092 756 l 1
 1092 833 l 2xf3
297 1760 m 1xf7
 397 1760 l 1xf7
 397 514 l 1
 250 514 l 1
 250 1565 l 1xfb
 214 1527 148 1508 95 1508 c 1
 95 1604 l 1
 170 1613 263 1669 297 1760 c 1xf7
956 1760 m 1
 1089 1760 l 1
 610 0 l 1
 477 0 l 1
 956 1760 l 1
EndSplineSet
EndChar

StartChar: onequarter
Encoding: 188 188 271
Width: 1535
VWidth: 0
GlyphClass: 2
Flags: W
HStem: 0 21G<467 605.443 1190 1316> 219 106<1028 1190 1316 1406> 1508 96<95 206.392> 1740 20G<280 397 940.557 1079>
VStem: 250 147<514 1565> 297 100<1688.52 1760> 1190 126<0 219 325 928>
LayerCount: 2
UndoRedoHistory
Layer: 1
Undoes
EndUndoes
Redoes
EndRedoes
EndUndoRedoHistory
Fore
SplineSet
946 1760 m 1xf2
 1079 1760 l 1
 600 0 l 1
 467 0 l 1
 946 1760 l 1xf2
297 1760 m 1xf6
 397 1760 l 1xf6
 397 514 l 1
 250 514 l 1
 250 1565 l 1xfa
 214 1527 148 1508 95 1508 c 1
 95 1604 l 1
 170 1613 263 1669 297 1760 c 1xf6
1160 1147 m 1
 1316 1147 l 1
 1316 325 l 1
 1406 325 l 1
 1406 219 l 1
 1316 219 l 1
 1316 0 l 1
 1190 0 l 1
 1190 219 l 1
 909 219 l 1
 909 310 l 1
 1160 1147 l 1
1190 325 m 1
 1190 928 l 1
 1028 325 l 1
 1190 325 l 1
EndSplineSet
EndChar

StartChar: ordfeminine
Encoding: 170 170 272
Width: 927
VWidth: 0
GlyphClass: 2
Flags: W
HStem: 556 133<385.087 523.759> 1645 137<400.881 548.288>
VStem: 201 165<705.327 1133.55> 216 163<1385 1631.31> 569 165<567 667 715.49 1225 1321.12 1630.58>
LayerCount: 2
UndoRedoHistory
Layer: 1
Undoes
EndUndoes
Redoes
EndRedoes
EndUndoRedoHistory
Fore
SplineSet
216 1420 m 2xd8
 216 1624 251 1782 480 1782 c 0
 697 1782 734 1641 734 1384 c 2
 734 567 l 1
 570 567 l 1
 570 667 l 1
 558 625 500 556 406 556 c 0
 261 556 202 675 201 874 c 1
 201 992 l 2xe8
 201 1204 354 1250 569 1337 c 1
 569 1405 l 2
 569 1560 570 1645 477 1645 c 0
 392 1645 379 1583 379 1429 c 2
 379 1385 l 1
 216 1385 l 1
 216 1420 l 2xd8
569 772 m 1
 569 1225 l 1
 403 1151 366 1126 366 988 c 2
 366 880 l 2
 366 743 385 689 453 689 c 0
 511 689 555 736 569 772 c 1
EndSplineSet
EndChar

StartChar: ordmasculine
Encoding: 186 186 273
Width: 829
VWidth: 0
GlyphClass: 2
Flags: W
HStem: 552 137<340.853 485.193> 1645 137<339.914 487.742>
VStem: 146 166<716.16 1619.3> 517 166<710.422 1620.17>
LayerCount: 2
UndoRedoHistory
Layer: 1
Undoes
EndUndoes
Redoes
EndRedoes
EndUndoRedoHistory
Fore
SplineSet
146 1388 m 2
 146 1613 195 1782 417 1782 c 0
 641 1782 683 1615 683 1388 c 2
 683 964 l 2
 683 720 645 552 417 552 c 0
 190 552 146 715 146 964 c 2
 146 1388 l 2
517 1421 m 2
 517 1555 502 1645 417 1645 c 0
 326 1645 312 1555 312 1421 c 2
 312 918 l 2
 312 780 328 689 417 689 c 1
 499 688 517 779 517 918 c 2
 517 1421 l 2
EndSplineSet
EndChar

StartChar: oslash
Encoding: 248 248 274
Width: 879
VWidth: 0
GlyphClass: 2
Flags: W
HStem: -18 171<372.596 543.681> 1347 171<372.793 543.1>
VStem: 124 206<196.697 1306.28> 584 206<198.895 1306.72>
LayerCount: 2
UndoRedoHistory
Layer: 1
Undoes
EndUndoes
Redoes
EndRedoes
EndUndoRedoHistory
Fore
SplineSet
158 -145 m 1
 667 1672 l 1
 768 1644 l 1
 258 -173 l 1
 158 -145 l 1
EndSplineSet
Refer: 259 111 N 1 0 0 1 0 0 2
EndChar

StartChar: p
Encoding: 112 112 276
Width: 939
VWidth: 0
GlyphClass: 2
Flags: W
HStem: -274 21G<147 352> -18 172<411.875 569.693> 1346 167<423.698 571.553>
VStem: 147 205<-274 100 195.502 1306.48 1375 1500> 609 206<192.444 1313.19>
LayerCount: 2
UndoRedoHistory
Layer: 1
Undoes
EndUndoes
Redoes
EndRedoes
EndUndoRedoHistory
Fore
SplineSet
352 1375 m 1
 392 1473 479 1513 560 1513 c 0
 776 1513 815 1305 815 1030 c 2
 815 487 l 2
 815 203 770 -18 527 -18 c 0
 450 -18 384 37 352 100 c 1
 352 -274 l 1
 147 -274 l 1
 147 1500 l 1
 352 1500 l 1
 352 1375 l 1
609 1066 m 2
 609 1231 598 1346 491 1346 c 0
 405 1346 352 1306 352 1066 c 2
 352 451 l 2
 352 252 375 154 487 154 c 1
 586 155 609 250 609 459 c 2
 609 1066 l 2
EndSplineSet
EndChar

StartChar: paragraph
Encoding: 182 182 277
Width: 1064
VWidth: 0
GlyphClass: 2
Flags: W
HStem: 0 21G<421 599 742 920> 1575 185<599.5 742>
VStem: 98 501<1281.99 1573.92> 421 178<0 1140.44> 742 178<0 1575>
LayerCount: 2
UndoRedoHistory
Layer: 1
Undoes
EndUndoes
Redoes
EndRedoes
EndUndoRedoHistory
Fore
SplineSet
617 1760 m 2xe8
 920 1760 l 1
 920 0 l 1
 742 0 l 1
 742 1575 l 1
 599 1575 l 1
 599 0 l 1
 421 0 l 1
 421 1135 l 1xd8
 207 1159 98 1263 98 1456 c 0
 98 1698 240 1760 617 1760 c 2xe8
EndSplineSet
EndChar

StartChar: parenleft
Encoding: 40 40 278
Width: 560
VWidth: 0
GlyphClass: 2
Flags: W
HStem: -242 155<366.329 478> 1627 155<366.329 478>
VStem: 134 205<-63.025 1603.02>
LayerCount: 2
UndoRedoHistory
Layer: 1
Undoes
EndUndoes
Redoes
EndRedoes
EndUndoRedoHistory
Fore
SplineSet
134 1352 m 2
 134 1715 211 1782 478 1782 c 1
 478 1627 l 1
 358 1627 339 1609 339 1356 c 2
 339 184 l 2
 339 -68 358 -87 478 -87 c 1
 478 -242 l 1
 211 -242 134 -175 134 188 c 2
 134 1352 l 2
EndSplineSet
EndChar

StartChar: parenright
Encoding: 41 41 279
Width: 560
VWidth: 0
GlyphClass: 2
Flags: W
HStem: -242 155<82 193.671> 1627 155<82 193.671>
VStem: 221 205<-63.025 1603.02>
LayerCount: 2
UndoRedoHistory
Layer: 1
Undoes
EndUndoes
Redoes
EndRedoes
EndUndoRedoHistory
Fore
SplineSet
426 1352 m 2
 426 188 l 2
 426 -175 349 -242 82 -242 c 1
 82 -87 l 1
 202 -87 221 -68 221 184 c 2
 221 1356 l 2
 221 1609 202 1627 82 1627 c 1
 82 1782 l 1
 349 1782 426 1715 426 1352 c 2
EndSplineSet
EndChar

StartChar: partialdiff
Encoding: 8706 8706 280
Width: 1072
VWidth: 0
GlyphClass: 2
Flags: W
HStem: -21 165<372.465 547.979> 940 146<437.045 630.398> 1520 132<278.37 633.308>
VStem: 162 188<168.877 770.728> 684 185<1055.42 1471.85>
CounterMasks: 1 e0
LayerCount: 2
UndoRedoHistory
Layer: 1
Undoes
EndUndoes
Redoes
EndRedoes
EndUndoRedoHistory
Fore
SplineSet
259 1607 m 1
 373 1638 467 1652 544 1652 c 0
 797 1652 869 1501 869 1303 c 0
 869 1239 861 1170 850 1099 c 1
 750 246 l 2
 736 125 669 -21 446 -21 c 0
 281 -21 162 59 162 310 c 0
 162 320 163 330 163 341 c 0
 183 885 242 1086 485 1086 c 0
 548 1086 577 1073 654 1047 c 1
 670 1150 684 1241 684 1316 c 0
 684 1443 642 1520 495 1520 c 0
 440 1520 371 1509 283 1486 c 1
 259 1607 l 1
632 899 m 1
 599 920 556 940 516 940 c 0
 459 940 407 900 394 765 c 2
 353 345 l 2
 351 327 350 311 350 296 c 0
 350 176 398 144 454 144 c 0
 514 144 557 146 571 289 c 2
 632 899 l 1
EndSplineSet
EndChar

StartChar: percent
Encoding: 37 37 281
Width: 2178
VWidth: 0
GlyphClass: 2
Flags: W
HStem: -20 161<1591.82 1787.8> 0 21G<652 838.955> 581 161<378.016 574.184> 1020 161<1590.26 1789.54> 1621 161<376.455 575.745> 1740 20G<1351.95 1531>
VStem: 166 185<769.265 1598.76> 601 186<769.265 1598.76> 1379 186<168.265 997.757> 1815 185<168.265 997.757>
LayerCount: 2
UndoRedoHistory
Layer: 1
Undoes
EndUndoes
Redoes
EndRedoes
EndUndoRedoHistory
Fore
SplineSet
1360 1760 m 1x77c0
 1531 1760 l 1
 831 0 l 1
 652 0 l 1
 1360 1760 l 1x77c0
601 1433 m 2
 601 1575 574 1621 476 1621 c 0x3bc0
 378 1621 351 1574 351 1433 c 2
 351 937 l 2
 351 792 379 742 476 742 c 0
 573 742 601 792 601 937 c 2
 601 1433 l 2
166 1364 m 2
 166 1675 243 1782 476 1782 c 0
 710 1782 787 1675 787 1364 c 2
 787 1009 l 2
 787 692 707 581 476 581 c 0
 246 581 166 692 166 1009 c 2
 166 1364 l 2
1379 763 m 2
 1379 1074 1456 1181 1690 1181 c 0
 1923 1181 2000 1074 2000 763 c 2
 2000 408 l 2
 2000 91 1920 -20 1690 -20 c 0xb3c0
 1459 -20 1379 91 1379 408 c 2
 1379 763 l 2
1815 832 m 2
 1815 974 1788 1020 1690 1020 c 0
 1592 1020 1565 973 1565 832 c 2
 1565 336 l 2
 1565 191 1593 141 1690 141 c 0
 1786 141 1815 191 1815 336 c 2
 1815 832 l 2
EndSplineSet
EndChar

StartChar: period
Encoding: 46 46 282
Width: 532
VWidth: 0
GlyphClass: 2
Flags: W
HStem: 0 198<171 346>
VStem: 171 175<0 198>
LayerCount: 2
UndoRedoHistory
Layer: 1
Undoes
EndUndoes
Redoes
EndRedoes
EndUndoRedoHistory
Fore
SplineSet
171 198 m 1
 346 198 l 1
 346 0 l 1
 171 0 l 1
 171 198 l 1
EndSplineSet
EndChar

StartChar: periodcentered
Encoding: 183 183 283
Width: 480
VWidth: 0
GlyphClass: 2
Flags: W
HStem: 769 208<148 348>
VStem: 148 200<769 977>
LayerCount: 2
UndoRedoHistory
Layer: 1
Undoes
EndUndoes
Redoes
EndRedoes
EndUndoRedoHistory
Fore
SplineSet
148 977 m 1
 348 977 l 1
 348 769 l 1
 148 769 l 1
 148 977 l 1
EndSplineSet
EndChar

StartChar: perthousand
Encoding: 8240 8240 284
Width: 3042
VWidth: 0
GlyphClass: 2
Flags: W
HStem: -20 161<1631.02 1827.18 2477.82 2673.98> 0 21G<652 838.955> 581 161<368.016 564.184> 1020 161<1629.46 1828.74 2476.26 2675.54> 1621 161<366.455 565.745> 1740 20G<1351.95 1531>
VStem: 156 185<769.265 1598.76> 591 186<769.265 1598.76> 1419 185<168.265 997.757> 1854 186<168.265 997.757> 2265 186<168.265 997.757> 2701 185<168.265 997.757>
CounterMasks: 1 00f0
LayerCount: 2
UndoRedoHistory
Layer: 1
Undoes
EndUndoes
Redoes
EndRedoes
EndUndoRedoHistory
Fore
SplineSet
1360 1760 m 1x77f0
 1531 1760 l 1
 831 0 l 1
 652 0 l 1
 1360 1760 l 1x77f0
591 1433 m 2
 591 1575 564 1621 466 1621 c 0x3bf0
 368 1621 341 1574 341 1433 c 2
 341 937 l 2
 341 792 369 742 466 742 c 0
 563 742 591 792 591 937 c 2
 591 1433 l 2
156 1364 m 2
 156 1675 233 1782 466 1782 c 0
 700 1782 777 1675 777 1364 c 2
 777 1009 l 2
 777 692 697 581 466 581 c 0
 236 581 156 692 156 1009 c 2
 156 1364 l 2
1854 832 m 2
 1854 974 1827 1020 1729 1020 c 0
 1631 1020 1604 973 1604 832 c 2
 1604 336 l 2
 1604 191 1632 141 1729 141 c 0xb3f0
 1826 141 1854 191 1854 336 c 2
 1854 832 l 2
1419 763 m 2
 1419 1074 1496 1181 1729 1181 c 0
 1963 1181 2040 1074 2040 763 c 2
 2040 408 l 2
 2040 91 1960 -20 1729 -20 c 0
 1499 -20 1419 91 1419 408 c 2
 1419 763 l 2
2265 763 m 2
 2265 1074 2342 1181 2576 1181 c 0
 2809 1181 2886 1074 2886 763 c 2
 2886 408 l 2
 2886 91 2806 -20 2576 -20 c 0
 2345 -20 2265 91 2265 408 c 2
 2265 763 l 2
2701 832 m 2
 2701 974 2674 1020 2576 1020 c 0
 2478 1020 2451 973 2451 832 c 2
 2451 336 l 2
 2451 191 2479 141 2576 141 c 0
 2673 141 2701 191 2701 336 c 2
 2701 832 l 2
EndSplineSet
EndChar

StartChar: plus
Encoding: 43 43 286
Width: 680
VWidth: 0
GlyphClass: 2
Flags: W
HStem: 751 140<40 264 413 640>
VStem: 264 149<501 751 891 1137>
LayerCount: 2
UndoRedoHistory
Layer: 1
Undoes
EndUndoes
Redoes
EndRedoes
EndUndoRedoHistory
Fore
SplineSet
264 1137 m 1
 413 1137 l 1
 413 891 l 1
 640 891 l 1
 640 751 l 1
 413 751 l 1
 413 501 l 1
 264 501 l 1
 264 751 l 1
 40 751 l 1
 40 891 l 1
 264 891 l 1
 264 1137 l 1
EndSplineSet
EndChar

StartChar: plusminus
Encoding: 177 177 287
Width: 854
VWidth: 0
GlyphClass: 2
Flags: W
HStem: 188 149<165 681> 766 140<129 353 501 729>
VStem: 353 148<516 766 906 1152>
LayerCount: 2
UndoRedoHistory
Layer: 1
Undoes
EndUndoes
Redoes
EndRedoes
EndUndoRedoHistory
Fore
SplineSet
353 1152 m 1
 501 1152 l 1
 501 906 l 1
 729 906 l 1
 729 766 l 1
 501 766 l 1
 501 516 l 1
 353 516 l 1
 353 766 l 1
 129 766 l 1
 129 906 l 1
 353 906 l 1
 353 1152 l 1
165 337 m 1
 681 337 l 1
 681 188 l 1
 165 188 l 1
 165 337 l 1
EndSplineSet
EndChar

StartChar: product
Encoding: 8719 8719 288
Width: 981
VWidth: 0
GlyphClass: 2
Flags: W
HStem: 0 21G<146 350 631 835> 1598 162<350 631>
VStem: 146 204<0 1598> 631 204<0 1598>
LayerCount: 2
UndoRedoHistory
Layer: 1
Undoes
EndUndoes
Redoes
EndRedoes
EndUndoRedoHistory
Fore
SplineSet
146 1760 m 1
 835 1760 l 1
 835 0 l 1
 631 0 l 1
 631 1598 l 1
 350 1598 l 1
 350 0 l 1
 146 0 l 1
 146 1760 l 1
EndSplineSet
EndChar

StartChar: q
Encoding: 113 113 289
Width: 937
VWidth: 0
GlyphClass: 2
Flags: W
HStem: -274 21G<585 790> -18 172<366.595 526.826> 1346 167<367.634 520.052>
VStem: 124 205<187.814 1311.19> 585 205<-274 104 194.965 1302.14 1383 1500>
LayerCount: 2
UndoRedoHistory
Layer: 1
Undoes
EndUndoes
Redoes
EndRedoes
EndUndoRedoHistory
Fore
SplineSet
124 1030 m 2
 124 1304 168 1513 380 1513 c 0
 461 1513 544 1478 585 1383 c 1
 585 1500 l 1
 790 1500 l 1
 790 -274 l 1
 585 -274 l 1
 585 104 l 1
 557 38 489 -18 412 -18 c 0
 175 -18 124 196 124 480 c 2
 124 1030 l 2
584 1050 m 2
 584 1252 558 1346 450 1346 c 1
 349 1345 329 1251 329 1044 c 2
 329 437 l 2
 329 269 338 154 445 154 c 0
 535 154 584 198 584 435 c 2
 584 1050 l 2
EndSplineSet
EndChar

StartChar: question
Encoding: 63 63 290
Width: 854
VWidth: 0
GlyphClass: 2
Flags: W
HStem: 0 299<261 438> 1604 178<381.92 515.345>
VStem: 159 203<1160 1595.65> 261 177<0 299 494 732.094> 528 207<971.332 1594.77>
LayerCount: 2
UndoRedoHistory
Layer: 1
Undoes
EndUndoes
Redoes
EndRedoes
EndUndoRedoHistory
Fore
SplineSet
159 1370 m 2xe8
 159 1549 175 1782 446 1782 c 0
 717 1782 735 1596 735 1299 c 0
 735 953 679 787 437 718 c 1
 437 494 l 1
 258 494 l 1
 258 810 l 1
 524 892 528 1017 528 1360 c 0
 528 1536 530 1604 450 1604 c 0
 363 1604 362 1542 362 1356 c 2
 362 1160 l 1
 159 1160 l 1
 159 1370 l 2xe8
261 299 m 1xd8
 438 299 l 1
 438 0 l 1
 261 0 l 1
 261 299 l 1xd8
EndSplineSet
EndChar

StartChar: quotedbl
Encoding: 34 34 292
Width: 744
VWidth: 0
GlyphClass: 2
Flags: W
HStem: 1740 20G<161 350 488 677>
VStem: 161 189<1675.43 1760> 161 70<1058 1142.57> 488 189<1675.43 1760> 488 70<1058 1142.57>
LayerCount: 2
UndoRedoHistory
Layer: 1
Undoes
EndUndoes
Redoes
EndRedoes
EndUndoRedoHistory
Fore
SplineSet
488 1760 m 1x90
 677 1760 l 1x90
 558 1058 l 1
 488 1058 l 1x88
 488 1760 l 1x90
161 1760 m 1xc0
 350 1760 l 1xc0
 231 1058 l 1
 161 1058 l 1xa0
 161 1760 l 1xc0
EndSplineSet
EndChar

StartChar: quotedblbase
Encoding: 8222 8222 293
Width: 1016
VWidth: 0
GlyphClass: 2
Flags: W
HStem: 0 233<166 307 622 763>
VStem: 166 302<0 233> 221 132<-401 -349.889> 622 302<0 233> 677 133<-401 -349.441>
LayerCount: 2
UndoRedoHistory
Layer: 1
Undoes
EndUndoes
Redoes
EndRedoes
EndUndoRedoHistory
Fore
SplineSet
622 233 m 1x90
 924 233 l 1
 924 9 l 1x90
 810 -401 l 1
 677 -401 l 1x88
 763 0 l 1
 622 0 l 1
 622 233 l 1x90
166 233 m 1xc0
 468 233 l 1
 468 9 l 1xc0
 353 -401 l 1
 221 -401 l 1xa0
 307 0 l 1
 166 0 l 1
 166 233 l 1xc0
EndSplineSet
EndChar

StartChar: quotedblleft
Encoding: 8220 8220 294
Width: 1030
VWidth: 0
GlyphClass: 2
Flags: W
HStem: 1126 233<320 461 776 917> 1740 20G<267.439 406 724.39 862>
VStem: 159 302<1126 1359> 273 133<1708.44 1760> 615 302<1126 1359> 730 132<1708.89 1760>
LayerCount: 2
UndoRedoHistory
Layer: 1
Undoes
EndUndoes
Redoes
EndRedoes
EndUndoRedoHistory
Fore
SplineSet
730 1760 m 1xc4
 862 1760 l 1xc4
 776 1359 l 1
 917 1359 l 1
 917 1126 l 1
 615 1126 l 1
 615 1350 l 1xc8
 730 1760 l 1xc4
273 1760 m 1xd0
 406 1760 l 1xd0
 320 1359 l 1
 461 1359 l 1
 461 1126 l 1
 159 1126 l 1
 159 1350 l 1xe0
 273 1760 l 1xd0
EndSplineSet
EndChar

StartChar: quotedblright
Encoding: 8221 8221 295
Width: 1077
VWidth: 0
GlyphClass: 2
Flags: W
HStem: 1527 233<173 314 630 770>
VStem: 173 302<1527 1760> 228 133<1126 1177.56> 630 302<1527 1760> 684 133<1126 1177.11>
LayerCount: 2
UndoRedoHistory
Layer: 1
Undoes
EndUndoes
Redoes
EndRedoes
EndUndoRedoHistory
Fore
SplineSet
630 1760 m 1x90
 932 1760 l 1
 932 1536 l 1x90
 817 1126 l 1
 684 1126 l 1x88
 770 1527 l 1
 630 1527 l 1
 630 1760 l 1x90
173 1760 m 1xc0
 475 1760 l 1
 475 1536 l 1xc0
 361 1126 l 1
 228 1126 l 1xa0
 314 1527 l 1
 173 1527 l 1
 173 1760 l 1xc0
EndSplineSet
EndChar

StartChar: quoteleft
Encoding: 8216 8216 296
Width: 591
VWidth: 0
GlyphClass: 2
Flags: W
HStem: 1097 240<305 453> 1740 20G<262.259 397>
VStem: 144 309<1097 1337> 268 129<1710.06 1760>
LayerCount: 2
UndoRedoHistory
Layer: 1
Undoes
EndUndoes
Redoes
EndRedoes
EndUndoRedoHistory
Fore
SplineSet
268 1760 m 1xd0
 397 1760 l 1xd0
 305 1337 l 1
 453 1337 l 1
 453 1097 l 1
 144 1097 l 1
 144 1328 l 1xe0
 268 1760 l 1xd0
EndSplineSet
EndChar

StartChar: quoteright
Encoding: 8217 8217 297
Width: 591
VWidth: 0
GlyphClass: 2
Flags: W
HStem: 1520 240<160 307>
VStem: 160 309<1520 1760> 215 129<1097 1146.55>
LayerCount: 2
UndoRedoHistory
Layer: 1
Undoes
EndUndoes
Redoes
EndRedoes
EndUndoRedoHistory
Fore
SplineSet
160 1760 m 1xc0
 469 1760 l 1
 469 1529 l 1xc0
 344 1097 l 1
 215 1097 l 1xa0
 307 1520 l 1
 160 1520 l 1
 160 1760 l 1xc0
EndSplineSet
EndChar

StartChar: quotesinglbase
Encoding: 8218 8218 298
Width: 484
VWidth: 0
GlyphClass: 2
Flags: W
HStem: 0 232<97 238>
VStem: 97 302<0 232> 152 133<-382 -332.83>
LayerCount: 2
UndoRedoHistory
Layer: 1
Undoes
EndUndoes
Redoes
EndRedoes
EndUndoRedoHistory
Fore
SplineSet
97 232 m 1xc0
 399 232 l 1
 399 9 l 1xc0
 285 -382 l 1
 152 -382 l 1xa0
 238 0 l 1
 97 0 l 1
 97 232 l 1xc0
EndSplineSet
EndChar

StartChar: quotesingle
Encoding: 39 39 299
Width: 413
VWidth: 0
GlyphClass: 2
Flags: W
HStem: 1125 635<172 244>
VStem: 172 72<1125 1265.05>
LayerCount: 2
UndoRedoHistory
Layer: 1
Undoes
EndUndoes
Redoes
EndRedoes
EndUndoRedoHistory
Fore
SplineSet
112 1760 m 1
 309 1760 l 1
 244 1125 l 1
 172 1125 l 1
 112 1760 l 1
EndSplineSet
EndChar

StartChar: r
Encoding: 114 114 300
Width: 642
VWidth: 0
GlyphClass: 2
Flags: W
HStem: 0 21G<147 353> 1344 174<451.559 610.003> 1480 20G<147 353>
VStem: 147 206<0 1271.98 1333 1500>
LayerCount: 2
UndoRedoHistory
Layer: 1
Undoes
EndUndoes
Redoes
EndRedoes
EndUndoRedoHistory
Fore
SplineSet
353 1333 m 1xb0
 387 1449 475 1518 608 1518 c 0
 613 1518 611 1344 611 1344 c 1xd0
 515 1344 412 1313 353 1219 c 1
 353 0 l 1
 147 0 l 1
 147 1500 l 1
 353 1500 l 1
 353 1333 l 1xb0
EndSplineSet
EndChar

StartChar: radical
Encoding: 8730 8730 302
Width: 1083
VWidth: 0
GlyphClass: 2
Flags: W
HStem: 0 21G<311.198 532.743> 1619 141<832 1049>
LayerCount: 2
UndoRedoHistory
Layer: 1
Undoes
EndUndoes
Redoes
EndRedoes
EndUndoRedoHistory
Fore
SplineSet
646 1760 m 1
 1049 1760 l 1
 1049 1619 l 1
 832 1619 l 1
 529 0 l 1
 318 0 l 1
 66 741 l 1
 265 741 l 1
 393 258 l 1
 646 1760 l 1
EndSplineSet
EndChar

StartChar: registered
Encoding: 174 174 305
Width: 1502
VWidth: 0
GlyphClass: 2
Flags: W
HStem: 205 129<536.912 965.088> 848 97<700 805.165> 1184 98<700 815.646> 1390 129<536.912 965.088>
VStem: 94 141<645.835 1077.36> 567 132<430 848 945 1184> 811 128<430 839.021 951.108 1176.06> 1267 141<646.642 1078.17>
CounterMasks: 1 0f
LayerCount: 2
UndoRedoHistory
Layer: 1
Undoes
EndUndoes
Redoes
EndRedoes
EndUndoRedoHistory
Fore
SplineSet
94 862 m 0
 94 1235 378 1519 751 1519 c 0
 1124 1519 1408 1235 1408 862 c 0
 1408 489 1124 205 751 205 c 0
 378 205 94 489 94 862 c 0
751 1390 m 0
 407 1390 235 1125 235 861 c 0
 235 597 407 334 751 334 c 0
 1095 334 1267 599 1267 863 c 0
 1267 1127 1095 1390 751 1390 c 0
567 1282 m 1
 778 1282 l 2
 923 1282 946 1217 946 1073 c 0
 946 1066 946 1059 946 1053 c 0
 946 972 943 920 848 899 c 1
 937 889 939 828 939 760 c 0
 939 757 939 754 939 751 c 2
 939 430 l 1
 811 430 l 1
 811 762 l 2
 811 812 799 848 699 848 c 1
 699 430 l 1
 567 430 l 1
 567 1282 l 1
825 1073 m 0
 825 1164 810 1184 700 1184 c 1
 700 945 l 1
 823 945 825 974 825 1073 c 0
EndSplineSet
EndChar

StartChar: ring
Encoding: 730 730 306
Width: 923
VWidth: 0
GlyphClass: 2
Flags: W
HStem: 396 72<383.691 542.008> 700 71<383.691 542.008>
VStem: 261 93<487.998 679.643> 571 90<488.813 678.828>
LayerCount: 2
UndoRedoHistory
Layer: 1
Undoes
EndUndoes
Redoes
EndRedoes
EndUndoRedoHistory
Fore
SplineSet
261 584 m 0
 261 683 332 771 461 771 c 0
 591 771 661 683 661 584 c 0
 661 484 591 396 461 396 c 0
 332 396 261 484 261 584 c 0
571 584 m 0
 571 642 534 700 461 700 c 0
 390 700 354 642 354 584 c 0
 354 526 390 468 461 468 c 0
 534 468 571 526 571 584 c 0
EndSplineSet
EndChar

StartChar: s
Encoding: 115 115 307
Width: 804
VWidth: 0
GlyphClass: 2
Flags: W
HStem: -20 175<340.209 511.364> 1342 176<319.069 485.9>
VStem: 100 199<194.761 527 993.027 1322.25> 525 195<978 1303.8> 539 206<181.178 514.92>
AnchorPoint: "cedilla" 450 0 basechar 0
LayerCount: 2
UndoRedoHistory
Layer: 1
Undoes
EndUndoes
Redoes
EndRedoes
EndUndoRedoHistory
Fore
SplineSet
88 1165 m 0xe8
 88 1407 209 1518 411 1518 c 0
 613 1518 720 1401 720 1050 c 2
 720 978 l 1
 525 978 l 1
 525 1082 l 2xf0
 525 1250 497 1342 413 1342 c 0
 331 1342 292 1302 288 1177 c 1
 286 1081 329 984 425 889 c 1
 533 788 l 1
 671 656 745 509 745 344 c 0
 745 117 645 -20 426 -20 c 0
 213 -20 100 103 100 414 c 2
 100 527 l 1
 299 527 l 1
 299 415 l 2
 299 247 333 155 417 155 c 0
 501 155 539 202 539 343 c 0
 539 449 491 553 389 653 c 0
 375 668 316 722 283 754 c 0
 156 875 88 1012 88 1165 c 0xe8
EndSplineSet
EndChar

StartChar: section
Encoding: 167 167 313
Width: 805
VWidth: 0
GlyphClass: 2
Flags: W
HStem: -20 145<336.241 527.557> 1637 145<303.346 479.39>
VStem: 87 170<867.134 1057.25 1379 1594.16> 100 199<157.979 434> 525 194<1332 1593.6> 559 186<154.601 441.301>
LayerCount: 2
UndoRedoHistory
Layer: 1
Undoes
EndUndoes
Redoes
EndRedoes
EndUndoRedoHistory
Fore
SplineSet
88 1487 m 0xe4
 88 1664 206 1782 411 1782 c 0
 596 1782 719 1656 719 1423 c 2
 719 1332 l 1
 525 1332 l 1
 525 1418 l 2xe8
 525 1586 458 1637 396 1637 c 0
 315 1637 268 1571 268 1493 c 0
 268 1414 290 1367 417 1260 c 2
 620 1089 l 2
 750 980 769 889 761 810 c 0
 750 702 657 650 586 606 c 1
 717 495 745 367 745 281 c 0
 745 100 617 -20 426 -20 c 0
 230 -20 100 100 100 340 c 2
 100 434 l 1
 299 434 l 1
 299 342 l 2xd4
 299 212 317 125 437 125 c 0
 519 125 559 187 559 281 c 0
 559 401 518 454 441 517 c 2
 243 679 l 2
 158 749 87 830 87 953 c 0
 87 1050 141 1139 242 1182 c 1
 150 1265 88 1381 88 1487 c 0xe4
339 1084 m 1
 338 1085 l 1
 286 1055 257 1008 257 958 c 0
 257 891 325 831 514 683 c 1
 557 712 588 752 588 804 c 0
 588 877 523 953 339 1084 c 1
EndSplineSet
EndChar

StartChar: semicolon
Encoding: 59 59 314
Width: 561
VWidth: 0
GlyphClass: 2
Flags: W
HStem: 954 280<202 424>
VStem: 190 124<-103 -53.4528> 202 222<282 534 954 1234>
LayerCount: 2
UndoRedoHistory
Layer: 1
Undoes
EndUndoes
Redoes
EndRedoes
EndUndoRedoHistory
Fore
SplineSet
202 534 m 1xa0
 428 534 l 1
 428 291 l 1
 314 -103 l 1
 190 -103 l 1xc0
 276 282 l 1
 202 282 l 1
 202 534 l 1xa0
202 1234 m 1xa0
 424 1234 l 1
 424 954 l 1
 202 954 l 1
 202 1234 l 1xa0
EndSplineSet
EndChar

StartChar: seven
Encoding: 55 55 315
Width: 854
VWidth: 0
GlyphClass: 2
Flags: W
HStem: 0 21G<207 441.5> 1587 173<84 585>
VStem: 207 221<0 365.248>
LayerCount: 2
UndoRedoHistory
Layer: 1
Undoes
EndUndoes
Redoes
EndRedoes
EndUndoRedoHistory
Fore
SplineSet
84 1760 m 1
 786 1760 l 1
 786 1611 l 1
 782 1570 703 1388 626 1113 c 1
 541 820 455 430 428 0 c 1
 207 0 l 1
 243 480 352 880 447 1183 c 1
 520 1429 583 1577 585 1587 c 1
 84 1587 l 1
 84 1760 l 1
EndSplineSet
EndChar

StartChar: six
Encoding: 54 54 316
Width: 854
VWidth: 0
GlyphClass: 2
Flags: W
HStem: -21 178<362.394 548.119> 932 164<332.855 549.332> 1604 175<350.178 534.818>
VStem: 124 197<199.795 909.601 1043 1572.55> 564 184<1246 1579.6> 586 188<191.603 897.514>
CounterMasks: 1 e0
LayerCount: 2
UndoRedoHistory
Layer: 1
Undoes
EndUndoes
Redoes
EndRedoes
EndUndoRedoHistory
Fore
SplineSet
321 460 m 2xf4
 321 245 346 157 455 157 c 0
 571 157 586 237 586 451 c 2
 586 582 l 2
 586 840 575 932 459 932 c 0
 388 932 321 885 321 885 c 1
 321 460 l 2xf4
774 507 m 2
 774 193 743 -21 460 -21 c 0
 171 -21 124 172 124 494 c 2
 124 1234 l 2
 124 1612 187 1779 450 1779 c 0
 669 1779 748 1659 748 1329 c 2
 748 1246 l 1
 564 1246 l 1
 564 1299 l 2xf8
 564 1571 541 1604 434 1604 c 0
 319 1604 321 1497 321 1248 c 2
 321 1043 l 1
 355 1071 417 1096 485 1096 c 0
 729 1096 774 916 774 565 c 2
 774 507 l 2
EndSplineSet
EndChar

StartChar: slash
Encoding: 47 47 317
Width: 730
VWidth: 0
GlyphClass: 2
Flags: W
HStem: 0 21G<54 240.977> 1748 20G<488.034 676>
VStem: 54 622
LayerCount: 2
UndoRedoHistory
Layer: 1
Undoes
EndUndoes
Redoes
EndRedoes
EndUndoRedoHistory
Fore
SplineSet
493 1768 m 1
 676 1768 l 1
 236 0 l 1
 54 0 l 1
 493 1768 l 1
EndSplineSet
EndChar

StartChar: sterling
Encoding: 163 163 319
Width: 854
VWidth: 0
GlyphClass: 2
Flags: W
HStem: 0 164<350 787> 809 140<81 229 465 732> 1618 164<376.85 575.285>
VStem: 152 195<1114.8 1587.24> 612 174<1246 1582.09>
CounterMasks: 1 e0
LayerCount: 2
UndoRedoHistory
Layer: 1
Undoes
EndUndoes
Redoes
EndRedoes
EndUndoRedoHistory
Fore
SplineSet
152 1403 m 0
 152 1672 263 1782 479 1782 c 0
 698 1782 786 1659 786 1388 c 2
 786 1246 l 1
 612 1246 l 1
 612 1393 l 2
 612 1526 597 1618 482 1618 c 0
 398 1618 347 1593 347 1406 c 0
 347 1338 355 1283 381 1165 c 2
 428 949 l 1
 732 949 l 1
 732 809 l 1
 465 809 l 1
 503 614 l 2
 548 384 488 232 350 164 c 1
 787 164 l 1
 787 0 l 1
 118 0 l 1
 118 143 l 1
 232 205 366 347 305 620 c 2
 263 809 l 1
 81 809 l 1
 81 949 l 1
 229 949 l 1
 188 1146 l 2
 165 1258 152 1325 152 1403 c 0
EndSplineSet
EndChar

StartChar: summation
Encoding: 8721 8721 320
Width: 716
VWidth: 0
GlyphClass: 2
Flags: W
HStem: 0 185<350 663> 1581 179<350 663>
VStem: 116 547<0 181 1585 1760>
LayerCount: 2
UndoRedoHistory
Layer: 1
Undoes
EndUndoes
Redoes
EndRedoes
EndUndoRedoHistory
Fore
SplineSet
116 1760 m 1
 663 1760 l 1
 663 1581 l 1
 350 1581 l 1
 588 880 l 1
 350 185 l 1
 663 185 l 1
 663 0 l 1
 116 0 l 1
 116 181 l 1
 361 881 l 1
 116 1585 l 1
 116 1760 l 1
EndSplineSet
EndChar

StartChar: t
Encoding: 116 116 321
Width: 596
VWidth: 0
GlyphClass: 2
Flags: W
HStem: -9 163<390.365 549> 1336 152<43 180 385 547> 1740 20G<180 385>
VStem: 180 205<164.51 1336 1488 1760>
AnchorPoint: "cedilla" 390 0 basechar 0
LayerCount: 2
UndoRedoHistory
Layer: 1
Undoes
EndUndoes
Redoes
EndRedoes
EndUndoRedoHistory
Fore
SplineSet
180 1760 m 1
 385 1760 l 1
 385 1488 l 1
 547 1488 l 1
 547 1336 l 1
 385 1336 l 1
 385 241 l 2
 385 165 401 154 549 154 c 1
 549 -9 l 1
 408 -9 l 2
 215 -9 180 54 180 223 c 2
 180 1336 l 1
 43 1336 l 1
 43 1488 l 1
 180 1488 l 1
 180 1760 l 1
EndSplineSet
EndChar

StartChar: thorn
Encoding: 254 254 323
Width: 939
VWidth: 0
GlyphClass: 2
Flags: W
HStem: -274 21G<147 353> -18 173<412.226 569.255> 1345 168<424.094 571.059> 1759 20G<147 353>
VStem: 147 206<-274 100 193.109 1305.48 1375 1779> 608 206<192.444 1313.19>
LayerCount: 2
UndoRedoHistory
Layer: 1
Undoes
EndUndoes
Redoes
EndRedoes
EndUndoRedoHistory
Fore
SplineSet
147 1779 m 1
 353 1779 l 1
 353 1375 l 1
 393 1473 478 1513 559 1513 c 0
 776 1513 814 1305 814 1030 c 2
 814 487 l 2
 814 203 769 -18 526 -18 c 0
 450 -18 385 37 353 100 c 1
 353 -274 l 1
 147 -274 l 1
 147 1779 l 1
608 1065 m 2
 608 1230 598 1345 492 1345 c 0
 405 1345 353 1305 353 1065 c 2
 353 452 l 2
 353 253 375 155 487 155 c 1
 587 156 608 250 608 460 c 2
 608 1065 l 2
EndSplineSet
EndChar

StartChar: three
Encoding: 51 51 324
Width: 854
VWidth: 0
GlyphClass: 2
Flags: W
HStem: -20 175<341.511 525.976> 841 165<344 508.22> 1604 175<349.979 520.884>
VStem: 108 195<193.894 552 1274 1549.58> 567 205<195.663 768.204 1072.22 1561.41>
CounterMasks: 1 e0
LayerCount: 2
UndoRedoHistory
Layer: 1
Undoes
EndUndoes
Redoes
EndRedoes
EndUndoRedoHistory
Fore
SplineSet
112 1329 m 2
 112 1636 192 1779 434 1779 c 0
 675 1779 768 1624 768 1319 c 0
 768 1124 717 974 590 927 c 1
 722 867 772 690 772 485 c 0
 772 148 679 -20 429 -20 c 0
 187 -20 108 131 108 464 c 2
 108 552 l 1
 303 552 l 1
 303 471 l 2
 303 234 319 155 434 155 c 0
 549 155 567 250 567 487 c 0
 567 753 530 841 393 841 c 2
 344 841 l 1
 344 1006 l 1
 391 1006 l 2
 525 1006 565 1062 565 1319 c 0
 565 1558 517 1604 435 1604 c 0
 351 1604 310 1542 310 1316 c 2
 310 1274 l 1
 112 1274 l 1
 112 1329 l 2
EndSplineSet
EndChar

StartChar: threequarters
Encoding: 190 190 325
Width: 1555
VWidth: 0
GlyphClass: 2
Flags: W
HStem: 0 21G<467 605.443 1190 1316> 219 106<1028 1190 1316 1406> 609 112<270.079 418.276> 1171 111<285 409.165> 1670 112<275.444 414.759> 1740 20G<940.557 1079>
VStem: 119 132<733.756 981 1454 1652.52> 442 133<736.702 1140.2 1305.56 1651.88> 1190 126<0 219 325 928>
CounterMasks: 1 38
LayerCount: 2
UndoRedoHistory
Layer: 1
Undoes
EndUndoes
Redoes
EndRedoes
EndUndoRedoHistory
Fore
SplineSet
123 1481 m 2xfb80
 123 1682 183 1782 344 1782 c 0
 504 1782 572 1680 572 1481 c 0
 572 1353 541 1257 458 1226 c 1
 544 1187 575 1071 575 937 c 0
 575 718 505 609 340 609 c 0
 179 609 119 714 119 931 c 2
 119 981 l 1
 251 981 l 1
 251 931 l 2
 251 772 263 721 344 721 c 0
 423 721 442 783 442 939 c 0
 442 1111 408 1171 313 1171 c 2
 285 1171 l 1
 285 1282 l 1
 311 1282 l 1
 401 1283 440 1310 440 1481 c 0
 440 1640 399 1670 343 1670 c 0
 285 1670 256 1630 256 1478 c 1
 255 1454 l 1
 123 1454 l 1
 123 1481 l 2xfb80
946 1760 m 1xf780
 1079 1760 l 1
 600 0 l 1
 467 0 l 1
 946 1760 l 1xf780
1160 1147 m 1
 1316 1147 l 1
 1316 325 l 1
 1406 325 l 1
 1406 219 l 1
 1316 219 l 1
 1316 0 l 1
 1190 0 l 1
 1190 219 l 1
 909 219 l 1
 909 310 l 1
 1160 1147 l 1
1190 325 m 1
 1190 928 l 1
 1028 325 l 1
 1190 325 l 1
EndSplineSet
EndChar

StartChar: tilde
Encoding: 732 732 326
Width: 1117
VWidth: 0
GlyphClass: 2
Flags: W
HStem: 422 154<558.373 735.282> 504 146<387.188 573.366>
VStem: 245 625
LayerCount: 2
UndoRedoHistory
Layer: 1
Undoes
EndUndoes
Redoes
EndRedoes
EndUndoRedoHistory
Fore
SplineSet
245 492 m 1x60
 284 627 349 650 425 650 c 0x60
 506 650 637 576 687 576 c 2
 691 576 l 1
 710 579 726 587 747 647 c 1
 870 619 l 1
 861 582 l 1
 826 449 781 422 705 422 c 0xa0
 617 422 513 504 430 504 c 0
 422 504 414 504 407 502 c 0
 385 497 374 478 356 443 c 1
 245 492 l 1x60
EndSplineSet
EndChar

StartChar: trademark
Encoding: 8482 8482 327
Width: 1537
VWidth: 0
GlyphClass: 2
Flags: W
HStem: 1634 126<103 246 398 531>
VStem: 246 152<475 1634> 661 140<475 1497> 1273 140<475 1497>
CounterMasks: 1 70
LayerCount: 2
UndoRedoHistory
Layer: 1
Undoes
EndUndoes
Redoes
EndRedoes
EndUndoRedoHistory
Fore
SplineSet
1206 1760 m 1
 1413 1760 l 1
 1413 475 l 1
 1273 475 l 1
 1273 1000 l 1
 1285 1497 l 1
 1115 475 l 1
 966 475 l 1
 789 1497 l 1
 801 1000 l 1
 801 475 l 1
 661 475 l 1
 661 1760 l 1
 868 1760 l 1
 1040 716 l 1
 1206 1760 l 1
103 1760 m 1
 531 1760 l 1
 531 1634 l 1
 398 1634 l 1
 398 475 l 1
 246 475 l 1
 246 1634 l 1
 103 1634 l 1
 103 1760 l 1
EndSplineSet
EndChar

StartChar: two
Encoding: 50 50 328
Width: 854
VWidth: 0
GlyphClass: 2
Flags: W
HStem: 0 155<379 759> 1604 175<401.536 560.726>
VStem: 162 202<1065 1576.17> 174 205<155 374.625> 590 196<1018.53 1582.81>
LayerCount: 2
UndoRedoHistory
Layer: 1
Undoes
EndUndoes
Redoes
EndRedoes
EndUndoRedoHistory
Fore
SplineSet
162 1189 m 2xe8
 162 1569 190 1779 497 1779 c 0
 730 1779 786 1576 786 1293 c 0
 786 1118 754 989 676 846 c 1
 516 558 l 2
 404 357 379 298 379 155 c 1
 759 155 l 1
 759 0 l 1
 174 0 l 1
 174 98 l 2xd8
 174 299 218 424 354 665 c 2
 516 952 l 1
 573 1059 590 1188 590 1310 c 0
 590 1564 564 1604 482 1604 c 0
 398 1604 364 1562 364 1294 c 2
 364 1065 l 1
 162 1065 l 1
 162 1189 l 2xe8
EndSplineSet
EndChar

StartChar: u
Encoding: 117 117 329
Width: 962
VWidth: 0
GlyphClass: 2
Flags: W
HStem: -20 178<372.308 524.971> 0 21G<614 820> 1480 20G<135 340 614 820>
VStem: 135 205<192.612 1500> 614 206<0 153 198.112 1500>
AnchorPoint: "ogonek" 713 0 basechar 0
LayerCount: 2
UndoRedoHistory
Layer: 1
Undoes
EndUndoes
Redoes
EndRedoes
EndUndoRedoHistory
Fore
SplineSet
614 1500 m 1xb8
 820 1500 l 1
 820 0 l 1
 614 0 l 1x78
 614 153 l 1
 584 59 508 -20 386 -20 c 0
 252 -20 135 73 135 312 c 2
 135 1500 l 1
 340 1500 l 1
 340 335 l 2
 340 219 380 158 469 158 c 0
 568 158 614 235 614 340 c 2
 614 1500 l 1xb8
EndSplineSet
EndChar

StartChar: underscore
Encoding: 95 95 337
Width: 748
VWidth: 0
GlyphClass: 2
Flags: W
HStem: -198 152<48 699>
VStem: 48 651<-198 -46>
LayerCount: 2
UndoRedoHistory
Layer: 1
Undoes
EndUndoes
Redoes
EndRedoes
EndUndoRedoHistory
Fore
SplineSet
48 -46 m 1
 699 -46 l 1
 699 -198 l 1
 48 -198 l 1
 48 -46 l 1
EndSplineSet
EndChar

StartChar: uni00AD
Encoding: 173 173 339
Width: 696
VWidth: 0
GlyphClass: 2
Flags: W
HStem: 573 168<90 606>
VStem: 90 516<573 741>
LayerCount: 2
UndoRedoHistory
Layer: 1
Undoes
EndUndoes
Redoes
EndRedoes
EndUndoRedoHistory
Fore
SplineSet
90 741 m 1
 606 741 l 1
 606 573 l 1
 90 573 l 1
 90 741 l 1
EndSplineSet
EndChar

StartChar: uni00B2
Encoding: 178 178 340
Width: 846
VWidth: 0
GlyphClass: 2
Flags: W
HStem: 490 113<381 664> 1652 127<397.409 513.539>
VStem: 222 148<603 712.883 1262 1634.01> 536 144<1199.42 1638.69>
LayerCount: 2
UndoRedoHistory
Layer: 1
Undoes
EndUndoes
Redoes
EndRedoes
EndUndoRedoHistory
Fore
SplineSet
222 1340 m 2
 222 1618 243 1779 468 1779 c 0
 638 1779 680 1602 680 1427 c 0
 680 1087 433 915 381 603 c 1
 664 603 l 1
 664 490 l 1
 226 490 l 1
 226 557 l 2
 226 681 452 1142 482 1179 c 1
 514 1238 536 1350 536 1438 c 0
 536 1617 502 1652 456 1652 c 0
 408 1652 370 1618 370 1428 c 2
 370 1262 l 1
 222 1262 l 1
 222 1340 l 2
EndSplineSet
EndChar

StartChar: uni00B3
Encoding: 179 179 341
Width: 868
VWidth: 0
GlyphClass: 2
Flags: W
HStem: 571 118<358.483 510.892> 1148 113<373 499.828> 1658 121<364.974 510.743>
VStem: 197 142<706.253 956 1439 1637.71> 536 146<708.323 1113.56 1287.08 1638.07>
CounterMasks: 1 e0
LayerCount: 2
UndoRedoHistory
Layer: 1
Undoes
EndUndoes
Redoes
EndRedoes
EndUndoRedoHistory
Fore
SplineSet
201 1467 m 2
 201 1674 265 1779 438 1779 c 0
 607 1779 680 1671 680 1467 c 0
 680 1336 647 1238 560 1206 c 1
 651 1166 682 1047 682 910 c 0
 682 684 609 571 433 571 c 0
 260 571 197 680 197 902 c 2
 197 956 l 1
 339 956 l 1
 339 902 l 2
 339 742 352 689 435 689 c 0
 518 689 536 752 536 911 c 0
 536 1086 502 1148 402 1148 c 2
 373 1148 l 1
 373 1261 l 1
 401 1261 l 1
 497 1262 535 1294 535 1467 c 0
 535 1627 492 1658 435 1658 c 0
 374 1658 344 1617 344 1464 c 2
 344 1439 l 1
 201 1439 l 1
 201 1467 l 2
EndSplineSet
EndChar

StartChar: uni00B9
Encoding: 185 185 342
Width: 627
VWidth: 0
GlyphClass: 2
Flags: W
HStem: 1500 100<90 205.873> 1740 20G<285.5 409>
VStem: 253 156<487 1557> 302 107<1686.79 1760>
LayerCount: 2
UndoRedoHistory
Layer: 1
Undoes
EndUndoes
Redoes
EndRedoes
EndUndoRedoHistory
Fore
SplineSet
302 1760 m 1xd0
 409 1760 l 1xd0
 409 487 l 1
 253 487 l 1
 253 1557 l 1xe0
 214 1519 145 1500 90 1500 c 1
 90 1600 l 1
 169 1609 269 1667 302 1760 c 1xd0
EndSplineSet
EndChar

StartChar: uni0237
Encoding: 567 567 383
Width: 540
VWidth: 0
GlyphClass: 2
Flags: W
HStem: -150 144<80 186.504> 1480 20G<188 394>
VStem: 188 206<-1.8425 1500>
AnchorPoint: "circumflexcomb" 294 1496 basechar 0
LayerCount: 2
UndoRedoHistory
Layer: 1
Undoes
EndUndoes
Redoes
EndRedoes
EndUndoRedoHistory
Fore
SplineSet
188 1500 m 1
 394 1500 l 1
 394 70 l 2
 394 -101 307 -155 227 -159 c 1
 155 -166 85 -153 80 -150 c 1
 80 -6 l 1
 82 -6 115 -9 139 -7 c 0
 177 -3 188 23 188 60 c 2
 188 1500 l 1
EndSplineSet
EndChar

StartChar: uni02C9
Encoding: 713 713 384
Width: 696
VWidth: 0
GlyphClass: 2
Flags: W
HStem: 599 142<90 606>
VStem: 90 516<599 741>
LayerCount: 2
UndoRedoHistory
Layer: 1
Undoes
EndUndoes
Redoes
EndRedoes
EndUndoRedoHistory
Fore
SplineSet
90 741 m 1
 606 741 l 1
 606 599 l 1
 90 599 l 1
 90 741 l 1
EndSplineSet
EndChar

StartChar: uni0307
Encoding: 775 775 385
Width: 572
VWidth: 0
GlyphClass: 2
Flags: W
HStem: 458 269<187 395>
VStem: 187 208<458 727>
LayerCount: 2
UndoRedoHistory
Layer: 1
Undoes
EndUndoes
Redoes
EndRedoes
EndUndoRedoHistory
Fore
SplineSet
187 727 m 1
 395 727 l 1
 395 458 l 1
 187 458 l 1
 187 727 l 1
EndSplineSet
EndChar

StartChar: uni0311
Encoding: 785 785 386
Width: 1016
VWidth: 0
GlyphClass: 2
Flags: W
HStem: 1745 118<397.969 614.674>
VStem: 270 106<1621 1722.68> 634 106<1628 1722.17>
LayerCount: 2
UndoRedoHistory
Layer: 1
Undoes
EndUndoes
Redoes
EndRedoes
EndUndoRedoHistory
Fore
SplineSet
270 1632 m 1
 268 1775 342 1860 502 1863 c 0
 656 1866 738 1786 740 1643 c 1
 740 1628 l 1
 634 1626 l 1
 633 1727 569 1746 502 1745 c 0
 438 1744 375 1724 376 1621 c 1
 270 1619 l 1
 270 1632 l 1
EndSplineSet
EndChar

StartChar: uni2074
Encoding: 8308 8308 401
Width: 855
VWidth: 0
GlyphClass: 2
Flags: W
HStem: 802 112<316 483 619 711> 1740 20G<441.961 619>
VStem: 483 136<578 802 914 1525>
LayerCount: 2
UndoRedoHistory
Layer: 1
Undoes
EndUndoes
Redoes
EndRedoes
EndUndoRedoHistory
Fore
SplineSet
448 1760 m 1
 619 1760 l 1
 619 914 l 1
 711 914 l 1
 711 802 l 1
 619 802 l 1
 619 578 l 1
 483 578 l 1
 483 802 l 1
 188 802 l 1
 188 899 l 1
 448 1760 l 1
483 914 m 1
 483 1525 l 1
 316 914 l 1
 483 914 l 1
EndSplineSet
EndChar

StartChar: uni2215
Encoding: 8725 8725 402
Width: 829
VWidth: 0
GlyphClass: 2
Flags: W
HStem: 0 21G<76 258.158> 1748 20G<525.853 709>
VStem: 76 633
LayerCount: 2
UndoRedoHistory
Layer: 1
Undoes
EndUndoes
Redoes
EndRedoes
EndUndoRedoHistory
Fore
SplineSet
531 1768 m 1
 709 1768 l 1
 253 0 l 1
 76 0 l 1
 531 1768 l 1
EndSplineSet
EndChar

StartChar: uniFB00
Encoding: 64256 64256 404
Width: 1246
VWidth: 0
GlyphClass: 2
Flags: W
HStem: 0 21G<200 405 823 1028> 1291 151<71 200 405 823 1028 1204> 1622 143<510.94 581 1133.94 1204> 1628 158<415.831 580.207 1038.83 1203.21>
VStem: 200 205<0 1291 1442 1617.52> 823 205<0 1291 1442 1617.52>
LayerCount: 2
UndoRedoHistory
Layer: 1
Undoes
EndUndoes
Redoes
EndRedoes
EndUndoRedoHistory
Fore
SplineSet
823 1515 m 2xdc
 823 1688 894 1786 1055 1786 c 0xdc
 1134 1786 1198 1767 1204 1765 c 1
 1204 1622 l 1xec
 1177 1626 1153 1628 1133 1628 c 0
 1043 1628 1028 1588 1028 1523 c 2
 1028 1442 l 1
 1204 1442 l 1
 1204 1291 l 1
 1028 1291 l 1
 1028 0 l 1
 823 0 l 1
 823 1291 l 1
 405 1291 l 1
 405 0 l 1
 200 0 l 1
 200 1291 l 1
 71 1291 l 1
 71 1442 l 1
 200 1442 l 1
 200 1515 l 2
 200 1688 271 1786 432 1786 c 0xdc
 511 1786 575 1767 581 1765 c 1
 581 1622 l 1xec
 554 1626 530 1628 510 1628 c 0
 420 1628 405 1588 405 1523 c 2
 405 1442 l 1
 823 1442 l 1
 823 1515 l 2xdc
EndSplineSet
EndChar

StartChar: uniFB01
Encoding: 64257 64257 405
Width: 1126
VWidth: 0
GlyphClass: 2
Flags: W
HStem: 0 21G<200 405 773 978> 1349 151<71 200 405 773> 1611 189<773 978> 1648 158<415.831 580.207>
VStem: 200 205<0 1349 1500 1637.52> 773 205<0 1349 1611 1800>
LayerCount: 2
UndoRedoHistory
Layer: 1
Undoes
EndUndoes
Redoes
EndRedoes
EndUndoRedoHistory
Fore
SplineSet
200 1535 m 2xdc
 200 1708 271 1806 432 1806 c 0
 511 1806 575 1787 581 1785 c 1
 581 1642 l 1
 554 1646 530 1648 510 1648 c 0
 420 1648 405 1608 405 1543 c 2
 405 1500 l 1
 978 1500 l 1
 978 0 l 1
 773 0 l 1
 773 1349 l 1
 405 1349 l 1
 405 0 l 1
 200 0 l 1
 200 1349 l 1
 71 1349 l 1
 71 1500 l 1
 200 1500 l 1
 200 1535 l 2xdc
773 1800 m 1xec
 978 1800 l 1
 978 1611 l 1
 773 1611 l 1
 773 1800 l 1xec
EndSplineSet
EndChar

StartChar: uniFB02
Encoding: 64258 64258 406
Width: 1124
VWidth: 0
GlyphClass: 2
Flags: W
HStem: 0 21G<200 405 771 976> 1291 151<71 200 405 581> 1642 154<437.41 768.754>
VStem: 200 205<0 1291 1442 1608.13> 771 205<0 1630.06>
LayerCount: 2
UndoRedoHistory
Layer: 1
Undoes
EndUndoes
Redoes
EndRedoes
EndUndoRedoHistory
Fore
SplineSet
200 1515 m 2
 200 1716 349 1796 543 1796 c 0
 628 1796 680 1788 976 1725 c 1
 976 0 l 1
 771 0 l 1
 771 1622 l 1
 704 1636 645 1642 594 1642 c 0
 474 1642 405 1603 405 1523 c 2
 405 1442 l 1
 581 1442 l 1
 581 1291 l 1
 405 1291 l 1
 405 0 l 1
 200 0 l 1
 200 1291 l 1
 71 1291 l 1
 71 1442 l 1
 200 1442 l 1
 200 1515 l 2
EndSplineSet
EndChar

StartChar: uniFB03
Encoding: 64259 64259 407
Width: 1749
VWidth: 0
GlyphClass: 2
Flags: W
HStem: 0 21G<200 405 823 1028 1396 1601> 1349 151<71 200 405 823 1028 1396> 1611 189<1396 1601> 1654 143<510.94 581 1133.94 1204> 1660 158<415.831 580.207 1038.83 1203.21>
VStem: 200 205<0 1349 1500 1649.52> 823 205<0 1349 1500 1649.52> 1396 205<0 1349 1611 1800>
LayerCount: 2
UndoRedoHistory
Layer: 1
Undoes
EndUndoes
Redoes
EndRedoes
EndUndoRedoHistory
Fore
SplineSet
823 1547 m 2xcf
 823 1720 894 1818 1055 1818 c 0xcf
 1134 1818 1198 1799 1204 1797 c 1
 1204 1654 l 1xd7
 1177 1658 1153 1660 1133 1660 c 0
 1043 1660 1028 1620 1028 1555 c 2
 1028 1500 l 1
 1601 1500 l 1
 1601 0 l 1
 1396 0 l 1
 1396 1349 l 1
 1028 1349 l 1
 1028 0 l 1
 823 0 l 1
 823 1349 l 1
 405 1349 l 1
 405 0 l 1
 200 0 l 1
 200 1349 l 1
 71 1349 l 1
 71 1500 l 1
 200 1500 l 1
 200 1547 l 2
 200 1720 271 1818 432 1818 c 0xcf
 511 1818 575 1799 581 1797 c 1
 581 1654 l 1xd7
 554 1658 530 1660 510 1660 c 0
 420 1660 405 1620 405 1555 c 2
 405 1500 l 1
 823 1500 l 1
 823 1547 l 2xcf
1396 1800 m 1xe7
 1601 1800 l 1
 1601 1611 l 1
 1396 1611 l 1
 1396 1800 l 1xe7
EndSplineSet
EndChar

StartChar: uniFB04
Encoding: 64260 64260 408
Width: 1747
VWidth: 0
GlyphClass: 2
Flags: W
HStem: 0 21G<200 405 823 1028 1394 1599> 1291 151<71 200 405 823 1028 1204> 1628 158<415.831 580.207 1046 1391.75>
VStem: 200 205<0 1291 1442 1617.52> 823 205<0 1291 1442 1608.13> 1394 205<0 1630.06>
LayerCount: 2
UndoRedoHistory
Layer: 1
Undoes
EndUndoes
Redoes
EndRedoes
EndUndoRedoHistory
Fore
SplineSet
823 1515 m 2
 823 1716 972 1796 1166 1796 c 0
 1251 1796 1303 1788 1599 1725 c 1
 1599 0 l 1
 1394 0 l 1
 1394 1622 l 1
 1327 1636 1268 1642 1217 1642 c 0
 1097 1642 1028 1603 1028 1523 c 2
 1028 1442 l 1
 1204 1442 l 1
 1204 1291 l 1
 1028 1291 l 1
 1028 0 l 1
 823 0 l 1
 823 1291 l 1
 405 1291 l 1
 405 0 l 1
 200 0 l 1
 200 1291 l 1
 71 1291 l 1
 71 1442 l 1
 200 1442 l 1
 200 1515 l 2
 200 1688 271 1786 432 1786 c 0
 511 1786 575 1767 581 1765 c 1
 581 1622 l 1
 554 1626 530 1628 510 1628 c 0
 420 1628 405 1588 405 1523 c 2
 405 1442 l 1
 823 1442 l 1
 823 1515 l 2
EndSplineSet
EndChar

StartChar: v
Encoding: 118 118 412
Width: 774
VWidth: 0
GlyphClass: 2
Flags: W
HStem: 0 21G<263.107 509.92> 1480 20G<49 237.75 536.553 726>
VStem: 539 187<1401.81 1500>
LayerCount: 2
UndoRedoHistory
Layer: 1
Undoes
EndUndoes
Redoes
EndRedoes
EndUndoRedoHistory
Fore
SplineSet
539 1500 m 1
 726 1500 l 1
 507 0 l 1
 266 0 l 1
 49 1500 l 1
 235 1500 l 1
 352 649 l 1
 393 294 l 1
 400 294 l 1
 435 650 l 1
 539 1500 l 1
EndSplineSet
EndChar

StartChar: w
Encoding: 119 119 413
Width: 1166
VWidth: 0
GlyphClass: 2
Flags: W
HStem: 0 21G<227.667 414.066 739.428 933.413> 1480 20G<55 228.892 492.146 676.931 942.076 1112>
VStem: 55 172<1377.12 1500> 944 168<1381.19 1500>
LayerCount: 2
UndoRedoHistory
Layer: 1
Undoes
EndUndoes
Redoes
EndRedoes
EndUndoRedoHistory
Fore
SplineSet
944 1500 m 1
 1112 1500 l 1
 931 0 l 1
 742 0 l 1
 591 1174 l 1
 411 0 l 1
 230 0 l 1
 55 1500 l 1
 227 1500 l 1
 306 665 l 1
 329 378 l 1
 338 378 l 1
 376 666 l 1
 495 1500 l 1
 549 1500 l 1
 641 1500 l 1
 674 1500 l 1
 793 688 l 1
 834 378 l 1
 842 378 l 1
 866 689 l 1
 944 1500 l 1
EndSplineSet
EndChar

StartChar: x
Encoding: 120 120 418
Width: 751
VWidth: 0
GlyphClass: 2
Flags: W
HStem: 0 21G<30 221.922 524.569 722> 1480 20G<47 234.597 520.154 712>
LayerCount: 2
UndoRedoHistory
Layer: 1
Undoes
EndUndoes
Redoes
EndRedoes
EndUndoRedoHistory
Fore
SplineSet
47 1500 m 1
 228 1500 l 1
 386 1021 l 1
 526 1500 l 1
 712 1500 l 1
 470 766 l 1
 722 0 l 1
 531 0 l 1
 367 510 l 1
 216 0 l 1
 30 0 l 1
 282 773 l 1
 47 1500 l 1
EndSplineSet
EndChar

StartChar: y
Encoding: 121 121 419
Width: 786
VWidth: 0
GlyphClass: 2
Flags: W
HStem: -251 155<104 299.031> 1480 20G<47 248.769 550.487 751>
VStem: 47 199<1415.33 1500> 553 198<1411.97 1500>
LayerCount: 2
UndoRedoHistory
Layer: 1
Undoes
EndUndoes
Redoes
EndRedoes
EndUndoRedoHistory
Fore
SplineSet
553 1500 m 1
 751 1500 l 1
 502 -29 l 1
 477 -192 452 -251 305 -251 c 2
 104 -251 l 1
 104 -96 l 1
 175 -96 l 2
 233 -96 282 -92 291 -72 c 1
 307 -51 300 0 292 53 c 2
 47 1500 l 1
 246 1500 l 1
 354 720 l 1
 398 314 l 1
 416 314 l 1
 455 720 l 1
 553 1500 l 1
EndSplineSet
EndChar

StartChar: yen
Encoding: 165 165 423
Width: 827
VWidth: 0
GlyphClass: 2
Flags: W
HStem: 0 21<321 528> 391 116<85 377 506 763> 682 116<85 377 506 763> 1740 20<15 225.706 600.049 812>
VStem: 321 207<0 786.834> 377 129<507 682>
CounterMasks: 1 70
LayerCount: 2
UndoRedoHistory
Layer: 1
Undoes
EndUndoes
Redoes
EndRedoes
EndUndoRedoHistory
Fore
SplineSet
85 798 m 1xf4
 763 798 l 1
 763 682 l 1
 506 682 l 1
 506 507 l 1
 763 507 l 1
 763 391 l 1
 85 391 l 1
 85 507 l 1
 377 507 l 1
 377 682 l 1
 85 682 l 1
 85 798 l 1xf4
EndSplineSet
Refer: 115 89 N 1 0 0 1 0 0 2
EndChar

StartChar: z
Encoding: 122 122 425
Width: 673
VWidth: 0
GlyphClass: 2
Flags: W
HStem: 0 175<283 597> 1323 177<97 402>
VStem: 72 542
LayerCount: 2
UndoRedoHistory
Layer: 1
Undoes
EndUndoes
Redoes
EndRedoes
EndUndoRedoHistory
Fore
SplineSet
97 1500 m 1
 614 1500 l 1
 614 1359 l 1
 283 175 l 1
 597 175 l 1
 597 0 l 1
 72 0 l 1
 72 153 l 1
 402 1323 l 1
 97 1323 l 1
 97 1500 l 1
EndSplineSet
EndChar

StartChar: zero
Encoding: 48 48 429
Width: 854
VWidth: 0
GlyphClass: 2
Flags: W
HStem: -21 175<345.522 508.383> 1605 174<348.05 507.173>
VStem: 124 196<170.871 1585.98> 534 196<170.871 1586.48>
LayerCount: 2
UndoRedoHistory
Layer: 1
Undoes
EndUndoes
Redoes
EndRedoes
EndUndoRedoHistory
Fore
SplineSet
124 1316 m 2
 124 1619 150 1779 432 1779 c 0
 714 1779 730 1619 730 1316 c 2
 730 475 l 2
 730 162 720 -21 432 -21 c 0
 144 -21 124 162 124 475 c 2
 124 1316 l 2
534 1327 m 2
 534 1594 500 1605 430 1605 c 0
 362 1605 320 1596 320 1328 c 2
 320 470 l 2
 320 167 348 154 430 154 c 0
 507 154 534 168 534 470 c 2
 534 1327 l 2
EndSplineSet
EndChar

StartChar: uni0302
Encoding: 770 770 430
Width: 697
VWidth: 0
Flags: W
HStem: 1468 292<239 269 441 471>
VStem: 85 539
AnchorPoint: "circumflexcomb" 368 1225 mark 0
LayerCount: 2
UndoRedoHistory
Layer: 1
Undoes
EndUndoes
Redoes
EndRedoes
EndUndoRedoHistory
Fore
SplineSet
239 1760 m 1
 471 1760 l 1
 624 1468 l 1
 441 1468 l 1
 355 1673 l 1
 269 1468 l 1
 85 1468 l 1
 239 1760 l 1
EndSplineSet
EndChar
